<svg width="54" height="35" viewBox="0 0 54 35" fill="none" xmlns="http://www.w3.org/2000/svg">
<path d="M5.36212 13.9832C4.1321 16.639 3.85959 19.4691 3.87709 20.5522C3.84539 21.8648 4.42206 24.5203 6.00419 25.7146C7.58442 26.9076 8.33778 25.6926 8.73762 24.9289C9.09085 24.2542 9.14363 23.2628 9.78904 22.1497M12.1919 23.0418C11.9812 21.9638 11.1817 20.3323 10.0972 21.6839C9.87466 21.9612 9.91383 21.9345 9.78904 22.1497M12.1919 23.0418C12.2202 23.2754 12.2508 23.7789 12.1007 24.2707M12.1919 23.0418C12.2256 23.4308 12.5803 24.3386 12.921 24.1235M12.1919 23.0418C12.1937 23.0566 12.1955 23.0725 12.1972 23.0893M12.1919 23.0418C12.1932 23.0569 12.195 23.0728 12.1972 23.0893M12.1007 24.2707C11.9505 24.7625 11.2122 25.222 10.4861 24.9524C10.1343 24.8217 8.97587 23.7656 9.78904 22.1497M12.1007 24.2707C12.2413 23.81 12.2233 23.3391 12.1972 23.0893M12.921 24.1235C13.2617 23.9084 13.3469 23.6031 13.3814 23.3432M12.921 24.1235C12.5935 24.3302 12.2531 23.4995 12.1972 23.0893M13.3814 23.3432C13.4371 22.9222 13.4429 21.7717 13.1568 21.1423M13.3814 23.3432C13.4236 23.0244 13.4371 22.2874 13.317 21.6751M13.1568 21.1423C12.8707 20.5129 12.608 20.9858 12.647 21.3516C12.6656 21.5262 12.7688 21.8383 13.005 21.8138M13.1568 21.1423C13.2263 21.2951 13.2785 21.4787 13.317 21.6751M13.005 21.8138C13.2412 21.7894 14.2615 21.0594 14.7421 20.6974M13.005 21.8138C13.0652 21.8076 13.1766 21.7554 13.317 21.6751M14.7421 20.6974C14.5415 21.1064 14.286 22.1911 14.8693 23.2576M14.7421 20.6974C14.3842 20.967 13.7268 21.4407 13.317 21.6751M14.8693 23.2576C15.4525 24.3242 15.9027 21.6413 16.0549 20.1666M14.8693 23.2576C15.3137 24.0704 15.6809 22.7057 15.8979 21.3576M16.0549 20.1666C15.8914 20.9735 15.7001 22.6763 16.2427 23.0326M16.0549 20.1666C16.0187 20.5175 15.9656 20.9367 15.8979 21.3576M16.0549 20.1666C15.9925 20.4746 15.926 20.9132 15.8979 21.3576M16.2427 23.0326C16.7852 23.3889 17.3484 22.7714 17.4548 22.3005M16.2427 23.0326C15.9072 22.8123 15.8523 22.0773 15.8979 21.3576M17.4548 22.3005C17.5618 21.6837 17.8171 20.3751 17.7323 19.8886M17.4548 22.3005C17.519 21.9307 17.6364 21.3121 17.7019 20.7712M17.7323 19.8886C17.6264 19.2805 17.6135 21.3987 17.9933 22.0003M17.7323 19.8886C17.7663 20.0834 17.7457 20.41 17.7019 20.7712M17.7323 19.8886C17.6703 19.5328 17.6402 20.1102 17.7019 20.7712M17.9933 22.0003C18.3039 22.4925 18.749 22.3902 18.883 22.1203C19.1015 21.5125 19.1658 20.3668 19.0004 19.5911M17.9933 22.0003C17.8357 21.7507 17.7457 21.2399 17.7019 20.7712M19.0004 19.5911C18.838 18.8294 20.1129 20.9866 20.1673 21.6074M19.0004 19.5911C18.8886 19.0668 19.4579 19.9255 19.8413 20.7142M20.1673 21.6074C20.2217 22.2283 19.2937 19.4369 20.0101 19.2824M20.1673 21.6074C20.1504 21.414 20.0149 21.0712 19.8413 20.7142M20.1673 21.6074C20.1947 21.9196 19.9752 21.3637 19.8413 20.7142M20.0101 19.2824C20.5833 19.1589 21.2103 20.6491 21.4522 21.4097M20.0101 19.2824C19.6539 19.3592 19.7088 20.0718 19.8413 20.7142M21.6227 18.292C23.2024 19.8581 26.0156 23.5675 24.6302 25.8766C23.2449 28.1858 22.7839 21.9487 22.7265 18.5415C22.8177 17.8752 23.1768 16.4997 23.884 16.3285C24.7681 16.1146 25.8584 16.783 25.9868 18.0453C26.0896 19.0551 25.4414 20.0153 25.0617 20.3433M25.0617 20.3433C24.9238 20.4744 24.5024 20.7767 24.2288 20.869C23.8676 20.9908 23.9989 20.6967 24.1531 20.5531C24.2001 20.4853 25.3341 20.0493 25.6323 19.6136M25.0617 20.3433C25.2309 20.2179 25.4636 19.8865 25.6323 19.6136M29.3432 17.5546C29.1326 16.4765 28.5716 14.9613 27.4012 16.2393C27.1858 16.4745 27.1306 16.6243 27.0724 16.7248M29.3432 17.5546C29.3716 17.7881 29.4022 18.2916 29.252 18.7834M29.3432 17.5546C29.377 17.9435 29.8211 19.0352 30.0687 18.6936M29.3432 17.5546C29.345 17.5693 29.3468 17.5852 29.3486 17.6021M29.3432 17.5546C29.3446 17.5696 29.3463 17.5855 29.3486 17.6021M29.252 18.7834C29.1019 19.2753 28.394 19.6361 27.6375 19.4651C27.3019 19.2987 26.2592 18.3407 27.0724 16.7248M29.252 18.7834C29.3927 18.3227 29.3747 17.8518 29.3486 17.6021M27.0724 16.7248C26.587 17.5618 26.1439 18.7862 25.6323 19.6136M30.0687 18.6936C29.8211 19.0352 29.4045 18.0123 29.3486 17.6021M30.0687 18.6936C30.3343 18.1289 30.1933 16.5636 30.0279 15.7878C29.9161 15.2635 30.6472 16.4414 31.0306 17.2301M31.0306 17.2301C31.2042 17.5871 31.3397 17.9298 31.3567 18.1233C31.384 18.4354 31.1646 17.8796 31.0306 17.2301ZM31.0306 17.2301C30.8982 16.5877 30.8217 15.4431 31.1779 15.3663C31.6793 15.2582 32.2431 16.6992 32.5384 17.5709C32.5806 17.6957 32.7138 17.9041 32.8226 17.7097C32.9266 17.4642 32.8685 17.1913 32.9225 16.1582M33.0847 14.8886C33.0231 15.0899 32.9734 15.3724 32.9464 15.766C32.9366 15.9078 32.9288 16.0382 32.9225 16.1582M33.0847 14.8886C33.2895 14.2196 33.6267 14.4488 33.7057 14.4854C33.5411 14.3751 33.1864 14.3014 33.0847 14.8886ZM33.0847 14.8886C33.0376 15.1376 32.9392 15.7401 32.9225 16.1582M32.9225 16.1582C32.8944 16.2817 32.9192 16.6654 33.2433 17.2125C33.6486 17.8964 34.4128 17.1361 34.6234 16.348C34.834 15.5599 35.0898 12.8915 34.2768 5.96528C34.1517 5.40961 34.0357 5.06694 34.1135 5.92837C34.1914 6.7898 35.1654 13.4306 35.6426 16.6433C35.4778 15.3863 35.9557 12.7514 36.7275 12.783C37.6922 12.8226 37.5858 16.3443 38.1813 15.9353C38.6929 15.1078 38.1729 13.6938 38.6582 12.8568M40.9291 13.6866C40.7184 12.6085 40.1574 11.0933 38.987 12.3713C38.7716 12.6065 38.7164 12.7564 38.6582 12.8568M40.9291 13.6866C40.9574 13.9202 40.8778 14.372 40.7277 14.8638M40.9291 13.6866C40.9628 14.0756 41.4406 14.9763 41.8354 14.7735M40.9291 13.6866C40.9309 13.7014 40.9327 13.7172 40.9344 13.7341M40.9291 13.6866C40.9304 13.7017 40.9322 13.7175 40.9344 13.7341M40.7277 14.8638C40.5776 15.3557 40.0131 15.6922 39.2566 15.5211C38.921 15.3548 37.845 14.4727 38.6582 12.8568M40.7277 14.8638C40.8683 14.4031 40.9605 13.9838 40.9344 13.7341M41.8354 14.7735C41.4406 14.9763 40.9903 14.1443 40.9344 13.7341M41.8354 14.7735C42.2664 14.733 43.6574 12.1752 42.8445 5.24897C42.7226 4.6156 42.4614 3.52666 42.3915 4.23784C42.3042 5.12682 43.3302 11.5984 43.629 13.5828C43.7147 14.1523 44.2641 17.6826 45.4771 21.0525M27.1698 21.5338C30.9255 19.6019 40.6217 15.5338 49.3615 14.7166M1.23962 23.503C6.66155 18.5772 10.3419 18.2408 10.8484 18.3553" stroke="white" stroke-linecap="round" stroke-linejoin="round"/>
<circle cx="53.5" cy="14.5" r="0.5" fill="white"/>
</svg>
