<svg width="86" height="30" viewBox="0 0 86 30" fill="none" xmlns="http://www.w3.org/2000/svg">
<g clip-path="url(#clip0_199_143)">
<path d="M10.0601 0H14.7162V21.5529C12.3278 22.0064 10.574 22.188 8.66911 22.188C2.98458 22.1877 0.0214844 19.618 0.0214844 14.6893C0.0214844 9.94221 3.16618 6.85837 8.034 6.85837C8.78985 6.85837 9.36429 6.91865 10.0601 7.10005V0ZM10.0601 10.849C9.51585 10.6678 9.06234 10.6074 8.48771 10.6074C6.12928 10.6074 4.76857 12.0588 4.76857 14.5984C4.76857 17.078 6.06881 18.4385 8.45747 18.4385C8.97145 18.4385 9.39491 18.4084 10.0601 18.3177V10.849Z" fill="#092E20"/>
<path d="M22.1229 7.19088V17.9849C22.1229 21.704 21.8506 23.488 21.0345 25.0299C20.2785 26.5118 19.2806 27.4488 17.2247 28.4772L12.9009 26.4211C14.957 25.4534 15.9547 24.6071 16.5896 23.3064C17.2549 21.9763 17.4668 20.434 17.4668 16.3825V7.19088H22.1229ZM17.4668 0.0249023H22.1229V4.80222H17.4668V0.0249023ZM24.9355 8.24906C26.9917 7.28178 28.9569 6.8585 31.1037 6.8585C33.4924 6.8585 35.0645 7.49322 35.7601 8.733C36.153 9.42837 36.2739 10.3354 36.2739 12.2707V21.7343C34.1874 22.0366 31.557 22.2484 29.6221 22.2484C25.7217 22.2484 23.9678 20.8873 23.9678 17.864C23.9678 14.5981 26.296 13.0865 32.0105 12.6025V11.5746C32.0105 10.728 31.5873 10.4259 30.408 10.4259C28.6846 10.4259 26.7495 10.9096 24.9351 11.8471L24.9355 8.24906ZM32.2226 15.6569C29.1383 15.9592 28.1404 16.443 28.1404 17.6525C28.1404 18.5593 28.7151 18.9826 29.9849 18.9826C30.6805 18.9826 31.3152 18.9223 32.2224 18.7712L32.2226 15.6569ZM38.5418 7.91649C41.2931 7.19088 43.5608 6.8585 45.8588 6.8585C48.2474 6.8585 49.9709 7.40252 50.9993 8.46089C51.9668 9.45841 52.2689 10.5468 52.2689 12.8754V22.0064H47.6125V13.0568C47.6125 11.273 47.0078 10.6075 45.345 10.6075C44.7101 10.6075 44.1356 10.668 43.198 10.9401V22.0064H38.5418V7.91649ZM54.079 24.5462C55.712 25.3929 57.3447 25.7856 59.068 25.7856C62.1214 25.7856 63.4216 24.5462 63.4216 21.5829V21.4922C62.5148 21.9455 61.6074 22.1271 60.3983 22.1271C56.3163 22.1271 53.7156 19.4361 53.7156 15.1732C53.7156 9.88149 57.5559 6.88835 64.3587 6.88835C66.3543 6.88835 68.199 7.09979 70.4362 7.5533L68.8419 10.912C67.6023 10.6701 68.7426 10.8796 67.8057 10.7889V11.2728L67.866 13.2378L67.896 15.7778C67.9263 16.4126 67.9263 17.0477 67.9567 17.6826V18.9528C67.9567 22.9438 67.6241 24.8183 66.6266 26.3604C65.1752 28.6283 62.6654 29.7468 59.0976 29.7468C57.2834 29.7468 55.7116 29.4747 54.0786 28.8398L54.079 24.5462ZM63.3313 10.6377H62.8478C61.941 10.6075 60.8828 10.8492 60.1568 11.3027C59.0383 11.9378 58.4633 13.0868 58.4633 14.7195C58.4633 17.0479 59.6128 18.3781 61.6687 18.3781C62.3036 18.3781 62.8177 18.257 63.422 18.0758V16.4734C63.422 15.929 63.3922 15.3239 63.3922 14.6894L63.3621 12.5428L63.3317 11.0007L63.3313 10.6377ZM77.6652 6.79784C82.3214 6.79784 85.1638 9.7309 85.1638 14.4778C85.1638 19.346 82.2009 22.3998 77.4838 22.3998C72.8272 22.3998 69.9547 19.4667 69.9547 14.7501C69.955 9.85145 72.9183 6.79784 77.6652 6.79784ZM77.5741 18.6502C79.3581 18.6502 80.4165 17.1686 80.4165 14.5985C80.4165 12.0589 79.3884 10.547 77.6048 10.547C75.7601 10.547 74.7015 12.0289 74.7015 14.5985C74.7019 17.1688 75.7603 18.6502 77.5741 18.6502Z" fill="#092E20"/>
</g>
<defs>
<clipPath id="clip0_199_143">
<rect width="85.1852" height="29.7467" fill="white"/>
</clipPath>
</defs>
</svg>
