<svg width="91" height="20" viewBox="0 0 91 20" fill="none" xmlns="http://www.w3.org/2000/svg">
<path d="M13.6307 6.5C13.4354 5.90223 13.1779 5.3666 12.8583 4.89311C12.5446 4.41371 12.1688 4.00533 11.7308 3.66797C11.2988 3.33061 10.8075 3.07315 10.2571 2.8956C9.70668 2.71804 9.10298 2.62926 8.44602 2.62926C7.36885 2.62926 6.38932 2.90743 5.50746 3.46378C4.62559 4.02012 3.92424 4.83984 3.40341 5.92294C2.88258 7.00604 2.62216 8.33475 2.62216 9.90909C2.62216 11.4834 2.88554 12.8121 3.41229 13.8952C3.93904 14.9783 4.65223 15.7981 5.55185 16.3544C6.45147 16.9107 7.46354 17.1889 8.58807 17.1889C9.62974 17.1889 10.5471 16.967 11.3402 16.5231C12.1392 16.0733 12.7607 15.44 13.2045 14.6232C13.6544 13.8005 13.8793 12.8329 13.8793 11.7202L14.554 11.8622H9.08523V9.90909H16.0099V11.8622C16.0099 13.3596 15.6903 14.6617 15.0511 15.7685C14.4179 16.8752 13.5419 17.7334 12.4233 18.343C11.3106 18.9467 10.0322 19.2486 8.58807 19.2486C6.97822 19.2486 5.56368 18.8698 4.34446 18.1122C3.13116 17.3546 2.18419 16.2775 1.50355 14.8807C0.828835 13.4839 0.491477 11.8267 0.491477 9.90909C0.491477 8.47088 0.683831 7.17767 1.06854 6.02947C1.45916 4.87535 2.00959 3.89287 2.71982 3.08203C3.43004 2.27119 4.27048 1.64974 5.24112 1.21768C6.21177 0.785629 7.28007 0.569602 8.44602 0.569602C9.40483 0.569602 10.2985 0.714606 11.1271 1.00462C11.9616 1.28871 12.7044 1.69413 13.3555 2.22088C14.0124 2.74171 14.5599 3.36612 14.9979 4.0941C15.4358 4.81617 15.7377 5.61813 15.9034 6.5H13.6307ZM28.0905 13.4247V5.36364H30.1856V19H28.0905V16.6918H27.9484C27.6288 17.3842 27.1317 17.9731 26.4569 18.4585C25.7822 18.9379 24.93 19.1776 23.9001 19.1776C23.0479 19.1776 22.2903 18.9911 21.6274 18.6183C20.9645 18.2395 20.4437 17.6713 20.0649 16.9137C19.6861 16.1502 19.4967 15.1884 19.4967 14.0284V5.36364H21.5919V13.8864C21.5919 14.8807 21.8701 15.6738 22.4264 16.2656C22.9887 16.8575 23.7048 17.1534 24.5748 17.1534C25.0957 17.1534 25.6254 17.0202 26.164 16.7539C26.7085 16.4876 27.1642 16.0792 27.5312 15.5288C27.904 14.9783 28.0905 14.277 28.0905 13.4247ZM34.0231 19V5.36364H36.1183V19H34.0231ZM35.0884 3.09091C34.68 3.09091 34.3279 2.95182 34.032 2.67365C33.742 2.39548 33.5969 2.06108 33.5969 1.67045C33.5969 1.27983 33.742 0.945431 34.032 0.667258C34.3279 0.389086 34.68 0.25 35.0884 0.25C35.4968 0.25 35.846 0.389086 36.136 0.667258C36.4319 0.945431 36.5799 1.27983 36.5799 1.67045C36.5799 2.06108 36.4319 2.39548 36.136 2.67365C35.846 2.95182 35.4968 3.09091 35.0884 3.09091ZM45.8861 5.36364V7.1392H38.8193V5.36364H45.8861ZM40.879 2.09659H42.9742V15.0938C42.9742 15.6856 43.06 16.1295 43.2316 16.4254C43.4092 16.7154 43.6341 16.9107 43.9063 17.0114C44.1845 17.1061 44.4775 17.1534 44.7852 17.1534C45.0161 17.1534 45.2055 17.1416 45.3534 17.1179C45.5014 17.0883 45.6198 17.0646 45.7085 17.0469L46.1347 18.929C45.9926 18.9822 45.7944 19.0355 45.5399 19.0888C45.2854 19.148 44.9628 19.1776 44.5722 19.1776C43.9803 19.1776 43.4003 19.0503 42.8321 18.7958C42.2699 18.5413 41.8023 18.1536 41.4294 17.6328C41.0625 17.112 40.879 16.455 40.879 15.6619V2.09659ZM51.4259 10.7969V19H49.3307V0.818181H51.4259V7.49432H51.6034C51.923 6.79001 52.4024 6.23071 53.0416 5.81641C53.6868 5.39619 54.545 5.18608 55.6162 5.18608C56.5454 5.18608 57.3592 5.37251 58.0576 5.74538C58.756 6.11233 59.2976 6.67756 59.6823 7.44105C60.0729 8.19863 60.2682 9.16335 60.2682 10.3352V19H58.173V10.4773C58.173 9.39418 57.8919 8.5567 57.3296 7.96484C56.7733 7.36707 56.0009 7.06818 55.0125 7.06818C54.326 7.06818 53.7104 7.21319 53.1659 7.5032C52.6273 7.79321 52.2012 8.21638 51.8875 8.77273C51.5798 9.32907 51.4259 10.0038 51.4259 10.7969ZM72.695 13.4247V5.36364H74.7901V19H72.695V16.6918H72.5529C72.2333 17.3842 71.7362 17.9731 71.0614 18.4585C70.3867 18.9379 69.5344 19.1776 68.5046 19.1776C67.6523 19.1776 66.8948 18.9911 66.2319 18.6183C65.569 18.2395 65.0482 17.6713 64.6694 16.9137C64.2906 16.1502 64.1012 15.1884 64.1012 14.0284V5.36364H66.1964V13.8864C66.1964 14.8807 66.4746 15.6738 67.0309 16.2656C67.5932 16.8575 68.3093 17.1534 69.1793 17.1534C69.7002 17.1534 70.2299 17.0202 70.7685 16.7539C71.313 16.4876 71.7687 16.0792 72.1357 15.5288C72.5085 14.9783 72.695 14.277 72.695 13.4247ZM78.9117 19V0.818181H81.0068V7.52983H81.1844C81.3383 7.29309 81.5513 6.99124 81.8236 6.62429C82.1018 6.25142 82.4983 5.91998 83.0132 5.62997C83.5341 5.33404 84.2384 5.18608 85.1262 5.18608C86.2744 5.18608 87.2864 5.47313 88.1624 6.04723C89.0383 6.62133 89.7219 7.43513 90.2132 8.48864C90.7044 9.54214 90.95 10.785 90.95 12.2173C90.95 13.6615 90.7044 14.9132 90.2132 15.9727C89.7219 17.0262 89.0413 17.8429 88.1713 18.4229C87.3012 18.997 86.298 19.2841 85.1617 19.2841C84.2857 19.2841 83.5844 19.1391 83.0576 18.8491C82.5309 18.5531 82.1254 18.2187 81.8414 17.8459C81.5573 17.4671 81.3383 17.1534 81.1844 16.9048H80.9358V19H78.9117ZM80.9713 12.1818C80.9713 13.2116 81.1222 14.1201 81.4241 14.9073C81.7259 15.6886 82.1669 16.3011 82.7469 16.745C83.3269 17.183 84.0371 17.402 84.8776 17.402C85.7535 17.402 86.4845 17.1712 87.0704 16.7095C87.6623 16.242 88.1061 15.6146 88.4021 14.8274C88.7039 14.0343 88.8548 13.1525 88.8548 12.1818C88.8548 11.223 88.7069 10.3589 88.411 9.58949C88.1209 8.81416 87.68 8.20159 87.0882 7.75178C86.5022 7.29605 85.7654 7.06818 84.8776 7.06818C84.0253 7.06818 83.3092 7.28421 82.7291 7.71626C82.1491 8.1424 81.7111 8.74018 81.4152 9.50959C81.1193 10.2731 80.9713 11.1638 80.9713 12.1818Z" fill="black"/>
</svg>
