<svg width="161" height="161" viewBox="0 0 161 161" fill="none" xmlns="http://www.w3.org/2000/svg">
<g filter="url(#filter0_ddi_199_195)">
<path d="M148 73.5C148 110.779 117.779 141 80.5 141C43.2208 141 13 110.779 13 73.5C13 36.2208 43.2208 6 80.5 6C117.779 6 148 36.2208 148 73.5Z" fill="white"/>
</g>
<g clip-path="url(#clip0_199_195)">
<path d="M60.3509 66.5473C60.3509 67.6547 60.4707 68.5526 60.6802 69.2111C60.9196 69.8696 61.2189 70.5879 61.6379 71.3661C61.7876 71.6055 61.8474 71.845 61.8474 72.0545C61.8474 72.3538 61.6679 72.6531 61.2788 72.9524L59.3932 74.2094C59.1238 74.389 58.8544 74.4788 58.615 74.4788C58.3157 74.4788 58.0164 74.3292 57.7171 74.0598C57.2981 73.6108 56.9389 73.132 56.6396 72.6531C56.3403 72.1443 56.041 71.5756 55.7118 70.8872C53.3772 73.6408 50.444 75.0176 46.9123 75.0176C44.3982 75.0176 42.3928 74.2992 40.9263 72.8626C39.4597 71.4259 38.7114 69.5104 38.7114 67.116C38.7114 64.5719 39.6093 62.5068 41.4351 60.9504C43.2608 59.394 45.6852 58.6158 48.768 58.6158C49.7856 58.6158 50.8331 58.7056 51.9406 58.8553C53.048 59.0049 54.1853 59.2444 55.3825 59.5137V57.3288C55.3825 55.0541 54.9036 53.4678 53.9758 52.54C53.018 51.6122 51.4018 51.1632 49.0972 51.1632C48.0496 51.1632 46.9722 51.2829 45.8647 51.5523C44.7573 51.8217 43.6798 52.1509 42.6323 52.5699C42.1534 52.7795 41.7942 52.8992 41.5847 52.959C41.3752 53.0189 41.2256 53.0488 41.1058 53.0488C40.6868 53.0488 40.4773 52.7495 40.4773 52.121V50.6544C40.4773 50.1755 40.5372 49.8164 40.6868 49.6069C40.8365 49.3973 41.1058 49.1878 41.5249 48.9783C42.5724 48.4396 43.8295 47.9906 45.2961 47.6315C46.7626 47.2424 48.319 47.0628 49.9652 47.0628C53.5269 47.0628 56.1308 47.8709 57.8069 49.4871C59.453 51.1034 60.2911 53.5576 60.2911 56.85V66.5473H60.3509ZM48.1993 71.0967C49.187 71.0967 50.2046 70.9171 51.2821 70.558C52.3596 70.1988 53.3173 69.5403 54.1255 68.6424C54.6043 68.0738 54.9635 67.4452 55.1431 66.7269C55.3227 66.0086 55.4424 65.1406 55.4424 64.123V62.8659C54.5744 62.6564 53.6466 62.4768 52.6888 62.3571C51.731 62.2374 50.8032 62.1775 49.8754 62.1775C47.8701 62.1775 46.4035 62.5666 45.4158 63.3747C44.4281 64.1828 43.9492 65.3202 43.9492 66.8167C43.9492 68.2234 44.3084 69.271 45.0566 69.9893C45.7749 70.7375 46.8225 71.0967 48.1993 71.0967ZM72.2332 74.3292C71.6945 74.3292 71.3353 74.2394 71.0959 74.0299C70.8564 73.8503 70.6469 73.4313 70.4673 72.8626L63.4337 49.7266C63.2542 49.128 63.1644 48.7389 63.1644 48.5294C63.1644 48.0505 63.4038 47.7811 63.8827 47.7811H66.8158C67.3845 47.7811 67.7736 47.8709 67.9831 48.0804C68.2226 48.26 68.4021 48.679 68.5817 49.2477L73.61 69.0615L78.2791 49.2477C78.4288 48.6491 78.6083 48.26 78.8478 48.0804C79.0872 47.9008 79.5062 47.7811 80.045 47.7811H82.4394C83.0081 47.7811 83.3972 47.8709 83.6366 48.0804C83.876 48.26 84.0856 48.679 84.2053 49.2477L88.9342 69.3009L94.1122 49.2477C94.2917 48.6491 94.5013 48.26 94.7108 48.0804C94.9502 47.9008 95.3393 47.7811 95.878 47.7811H98.6615C99.1404 47.7811 99.4098 48.0206 99.4098 48.5294C99.4098 48.679 99.3799 48.8287 99.3499 49.0083C99.32 49.1878 99.2601 49.4273 99.1404 49.7565L91.9273 72.8925C91.7477 73.4911 91.5382 73.8802 91.2987 74.0598C91.0593 74.2394 90.6702 74.3591 90.1614 74.3591H87.5874C87.0187 74.3591 86.6296 74.2693 86.3902 74.0598C86.1507 73.8503 85.9412 73.4612 85.8215 72.8626L81.1823 53.5576L76.5731 72.8327C76.4234 73.4313 76.2438 73.8204 76.0044 74.0299C75.765 74.2394 75.3459 74.3292 74.8072 74.3292H72.2332ZM110.693 75.1373C109.137 75.1373 107.581 74.9577 106.084 74.5985C104.588 74.2394 103.42 73.8503 102.642 73.4013C102.163 73.132 101.834 72.8327 101.714 72.5633C101.595 72.2939 101.535 71.9946 101.535 71.7252V70.1988C101.535 69.5703 101.774 69.271 102.223 69.271C102.403 69.271 102.582 69.3009 102.762 69.3608C102.942 69.4206 103.211 69.5403 103.51 69.6601C104.528 70.109 105.635 70.4682 106.803 70.7076C108 70.9471 109.167 71.0668 110.364 71.0668C112.25 71.0668 113.716 70.7375 114.734 70.0791C115.752 69.4206 116.29 68.4629 116.29 67.2357C116.29 66.3977 116.021 65.7093 115.482 65.1406C114.944 64.5719 113.926 64.0631 112.459 63.5842L108.119 62.2374C105.935 61.549 104.318 60.5314 103.331 59.1845C102.343 57.8676 101.834 56.401 101.834 54.8446C101.834 53.5876 102.104 52.4801 102.642 51.5224C103.181 50.5646 103.899 49.7266 104.797 49.0681C105.695 48.3797 106.713 47.8709 107.91 47.5117C109.107 47.1526 110.364 47.0029 111.681 47.0029C112.34 47.0029 113.028 47.0329 113.686 47.1227C114.375 47.2124 115.003 47.3322 115.632 47.4519C116.231 47.6015 116.799 47.7512 117.338 47.9308C117.877 48.1103 118.296 48.2899 118.595 48.4695C119.014 48.7089 119.313 48.9484 119.493 49.2178C119.673 49.4572 119.762 49.7864 119.762 50.2055V51.6122C119.762 52.2407 119.523 52.5699 119.074 52.5699C118.834 52.5699 118.445 52.4502 117.937 52.2108C116.231 51.4326 114.315 51.0435 112.19 51.0435C110.484 51.0435 109.137 51.3129 108.209 51.8815C107.281 52.4502 106.803 53.3182 106.803 54.5453C106.803 55.3834 107.102 56.1017 107.7 56.6704C108.299 57.239 109.406 57.8077 110.993 58.3165L115.243 59.6634C117.398 60.3518 118.954 61.3095 119.882 62.5367C120.81 63.7638 121.259 65.1705 121.259 66.7269C121.259 68.0139 120.989 69.1812 120.481 70.1988C119.942 71.2164 119.224 72.1143 118.296 72.8327C117.368 73.5809 116.26 74.1197 114.973 74.5087C113.627 74.9278 112.22 75.1373 110.693 75.1373Z" fill="#252F3E"/>
<path d="M116.35 89.683C106.503 96.956 92.1964 100.817 79.8951 100.817C62.6553 100.817 47.1215 94.4419 35.3889 83.8466C34.4611 83.0085 35.2991 81.8712 36.4065 82.5297C49.0969 89.8925 64.7504 94.3521 80.9426 94.3521C91.8671 94.3521 103.869 92.0774 114.913 87.4083C116.56 86.66 117.966 88.4858 116.35 89.683Z" fill="#FF9900"/>
<path d="M120.45 85.0142C119.193 83.3979 112.13 84.236 108.927 84.6251C107.97 84.7448 107.82 83.9067 108.688 83.2782C114.315 79.3274 123.563 80.4648 124.641 81.7817C125.718 83.1286 124.341 92.377 119.074 96.8066C118.266 97.495 117.487 97.1359 117.847 96.238C119.044 93.2749 121.708 86.6005 120.45 85.0142Z" fill="#FF9900"/>
</g>
<defs>
<filter id="filter0_ddi_199_195" x="0" y="0" width="161" height="161" filterUnits="userSpaceOnUse" color-interpolation-filters="sRGB">
<feFlood flood-opacity="0" result="BackgroundImageFix"/>
<feColorMatrix in="SourceAlpha" type="matrix" values="0 0 0 0 0 0 0 0 0 0 0 0 0 0 0 0 0 0 127 0" result="hardAlpha"/>
<feOffset dy="7"/>
<feGaussianBlur stdDeviation="6.5"/>
<feComposite in2="hardAlpha" operator="out"/>
<feColorMatrix type="matrix" values="0 0 0 0 0 0 0 0 0 0 0 0 0 0 0 0 0 0 0.3 0"/>
<feBlend mode="normal" in2="BackgroundImageFix" result="effect1_dropShadow_199_195"/>
<feColorMatrix in="SourceAlpha" type="matrix" values="0 0 0 0 0 0 0 0 0 0 0 0 0 0 0 0 0 0 127 0" result="hardAlpha"/>
<feOffset dy="4"/>
<feGaussianBlur stdDeviation="2"/>
<feComposite in2="hardAlpha" operator="out"/>
<feColorMatrix type="matrix" values="0 0 0 0 0 0 0 0 0 0 0 0 0 0 0 0 0 0 0.25 0"/>
<feBlend mode="normal" in2="effect1_dropShadow_199_195" result="effect2_dropShadow_199_195"/>
<feBlend mode="normal" in="SourceGraphic" in2="effect2_dropShadow_199_195" result="shape"/>
<feColorMatrix in="SourceAlpha" type="matrix" values="0 0 0 0 0 0 0 0 0 0 0 0 0 0 0 0 0 0 127 0" result="hardAlpha"/>
<feOffset dy="-3"/>
<feComposite in2="hardAlpha" operator="arithmetic" k2="-1" k3="1"/>
<feColorMatrix type="matrix" values="0 0 0 0 0 0 0 0 0 0 0 0 0 0 0 0 0 0 0.2 0"/>
<feBlend mode="normal" in2="shape" result="effect3_innerShadow_199_195"/>
</filter>
<clipPath id="clip0_199_195">
<rect width="90" height="53.82" fill="white" transform="translate(35 47)"/>
</clipPath>
</defs>
</svg>
