<svg width="161" height="161" viewBox="0 0 161 161" fill="none" xmlns="http://www.w3.org/2000/svg">
<g filter="url(#filter0_ddi_199_168)">
<path d="M148 73.5C148 110.779 117.779 141 80.5 141C43.2208 141 13 110.779 13 73.5C13 36.2208 43.2208 6 80.5 6C117.779 6 148 36.2208 148 73.5Z" fill="white"/>
</g>
<path d="M80.5002 28C54.8221 28 34 48.8185 34 74.5002C34 95.0455 47.3237 112.476 65.7998 118.624C68.1236 119.055 68.977 117.616 68.977 116.387C68.977 115.279 68.9336 111.615 68.9139 107.73C55.9771 110.543 53.2474 102.243 53.2474 102.243C51.1322 96.8686 48.0844 95.4398 48.0844 95.4398C43.8657 92.5536 48.4025 92.6127 48.4025 92.6127C53.072 92.9409 55.5307 97.4047 55.5307 97.4047C59.678 104.514 66.4088 102.458 69.0623 101.27C69.4795 98.2647 70.6848 96.2136 72.0145 95.0525C61.6864 93.8763 50.8288 89.8891 50.8288 72.0717C50.8288 66.9952 52.6453 62.8468 55.6201 59.5904C55.1372 58.419 53.5457 53.6897 56.0705 47.2846C56.0705 47.2846 59.9753 46.0348 68.8614 52.0511C72.5703 51.0205 76.5484 50.5041 80.5002 50.4866C84.452 50.5041 88.433 51.0205 92.1492 52.0511C101.025 46.0348 104.924 47.2846 104.924 47.2846C107.455 53.6897 105.863 58.419 105.38 59.5904C108.361 62.8468 110.165 66.9948 110.165 72.0717C110.165 89.9314 99.2873 93.8643 88.933 95.0153C90.6007 96.4583 92.0868 99.2884 92.0868 103.626C92.0868 109.848 92.0329 114.856 92.0329 116.387C92.0329 117.625 92.8698 119.075 95.2272 118.618C113.693 112.463 127 95.0386 127 74.5002C127 48.8185 106.181 28 80.5002 28Z" fill="#161614"/>
<path d="M51.4159 94.2407C51.3137 94.4715 50.9498 94.5408 50.619 94.3825C50.2817 94.2308 50.092 93.9157 50.2014 93.6838C50.3017 93.446 50.6657 93.3796 51.0023 93.5394C51.3404 93.6907 51.5329 94.0087 51.4159 94.2407ZM53.7032 96.2815C53.4815 96.4872 53.0479 96.3916 52.7536 96.0667C52.4494 95.7425 52.3925 95.3092 52.6175 95.1002C52.8462 94.8949 53.2667 94.9908 53.5716 95.3154C53.8757 95.6433 53.9348 96.074 53.7028 96.2819M55.2725 98.8927C54.9873 99.0907 54.5212 98.9051 54.2335 98.4915C53.9486 98.0783 53.9486 97.5823 54.2397 97.3836C54.5285 97.1848 54.9873 97.3635 55.279 97.7738C55.5635 98.1943 55.5635 98.6903 55.2721 98.8931M57.926 101.917C57.6711 102.198 57.1284 102.123 56.7309 101.739C56.3246 101.364 56.2112 100.832 56.4669 100.551C56.7247 100.269 57.2706 100.349 57.6711 100.729C58.0748 101.103 58.1977 101.639 57.926 101.917ZM61.3556 102.938C61.2436 103.302 60.7206 103.468 60.194 103.313C59.6681 103.154 59.3239 102.727 59.43 102.359C59.5394 101.993 60.0646 101.82 60.5952 101.986C61.1203 102.144 61.465 102.568 61.3556 102.938ZM65.2592 103.371C65.2724 103.755 64.8256 104.073 64.2727 104.08C63.7166 104.092 63.2669 103.781 63.2611 103.404C63.2611 103.017 63.6976 102.702 64.2534 102.693C64.8063 102.682 65.2592 102.99 65.2592 103.371ZM69.0936 103.224C69.16 103.598 68.7756 103.983 68.2267 104.085C67.687 104.183 67.1874 103.952 67.1184 103.582C67.0513 103.198 67.443 102.814 67.9817 102.714C68.5316 102.619 69.0236 102.844 69.0936 103.224Z" fill="#161614"/>
<defs>
<filter id="filter0_ddi_199_168" x="0" y="0" width="161" height="161" filterUnits="userSpaceOnUse" color-interpolation-filters="sRGB">
<feFlood flood-opacity="0" result="BackgroundImageFix"/>
<feColorMatrix in="SourceAlpha" type="matrix" values="0 0 0 0 0 0 0 0 0 0 0 0 0 0 0 0 0 0 127 0" result="hardAlpha"/>
<feOffset dy="7"/>
<feGaussianBlur stdDeviation="6.5"/>
<feComposite in2="hardAlpha" operator="out"/>
<feColorMatrix type="matrix" values="0 0 0 0 0 0 0 0 0 0 0 0 0 0 0 0 0 0 0.3 0"/>
<feBlend mode="normal" in2="BackgroundImageFix" result="effect1_dropShadow_199_168"/>
<feColorMatrix in="SourceAlpha" type="matrix" values="0 0 0 0 0 0 0 0 0 0 0 0 0 0 0 0 0 0 127 0" result="hardAlpha"/>
<feOffset dy="4"/>
<feGaussianBlur stdDeviation="2"/>
<feComposite in2="hardAlpha" operator="out"/>
<feColorMatrix type="matrix" values="0 0 0 0 0 0 0 0 0 0 0 0 0 0 0 0 0 0 0.25 0"/>
<feBlend mode="normal" in2="effect1_dropShadow_199_168" result="effect2_dropShadow_199_168"/>
<feBlend mode="normal" in="SourceGraphic" in2="effect2_dropShadow_199_168" result="shape"/>
<feColorMatrix in="SourceAlpha" type="matrix" values="0 0 0 0 0 0 0 0 0 0 0 0 0 0 0 0 0 0 127 0" result="hardAlpha"/>
<feOffset dy="-3"/>
<feComposite in2="hardAlpha" operator="arithmetic" k2="-1" k3="1"/>
<feColorMatrix type="matrix" values="0 0 0 0 0 0 0 0 0 0 0 0 0 0 0 0 0 0 0.2 0"/>
<feBlend mode="normal" in2="shape" result="effect3_innerShadow_199_168"/>
</filter>
</defs>
</svg>
