<svg width="556" height="542" viewBox="0 0 556 542" fill="none" xmlns="http://www.w3.org/2000/svg">
<g filter="url(#filter0_d_233_57)">
<ellipse cx="277.5" cy="266.665" rx="273.5" ry="266.665" fill="white"/>
<path d="M187.458 429.773C187.458 431.978 184.922 433.743 181.724 433.743C178.084 434.074 175.548 432.309 175.548 429.773C175.548 427.567 178.084 425.802 181.282 425.802C184.591 425.472 187.458 427.236 187.458 429.773ZM153.16 424.81C152.388 427.016 154.594 429.552 157.903 430.214C160.77 431.317 164.078 430.214 164.74 428.008C165.402 425.802 163.306 423.266 159.998 422.273C157.131 421.501 153.932 422.604 153.16 424.81ZM201.905 422.935C198.707 423.707 196.501 425.803 196.832 428.339C197.163 430.545 200.03 431.978 203.339 431.206C206.537 430.434 208.743 428.339 208.412 426.133C208.081 424.038 205.103 422.604 201.905 422.935ZM274.471 0.333008C121.509 0.333008 4.49976 116.46 4.49976 269.422C4.49976 391.725 81.4769 496.383 191.428 533.218C205.545 535.754 210.507 527.042 210.507 519.873C210.507 513.036 210.176 475.319 210.176 452.16C210.176 452.16 132.979 468.702 116.767 419.296C116.767 419.296 104.195 387.204 86.1087 378.932C86.1087 378.932 60.8541 361.618 87.8732 361.949C87.8732 361.949 115.334 364.155 130.442 390.402C154.594 432.971 195.068 420.73 210.838 413.451C213.375 395.806 220.543 383.564 228.483 376.286C166.835 369.448 104.636 360.515 104.636 254.424C104.636 224.096 113.018 208.877 130.663 189.467C127.795 182.299 118.421 152.743 133.53 114.586C156.579 107.417 209.625 144.362 209.625 144.362C231.681 138.186 255.392 134.988 278.882 134.988C302.372 134.988 326.083 138.186 348.14 144.362C348.14 144.362 401.186 107.307 424.235 114.586C439.343 152.854 429.969 182.299 427.102 189.467C444.747 208.987 455.555 224.206 455.555 254.424C455.555 360.846 390.598 369.338 328.951 376.286C339.097 384.998 347.699 401.54 347.699 427.457C347.699 464.622 347.368 510.61 347.368 519.653C347.368 526.821 352.441 535.534 366.447 532.997C476.729 496.383 551.5 391.725 551.5 269.422C551.5 116.46 427.433 0.333008 274.471 0.333008ZM111.694 380.697C110.261 381.8 110.591 384.336 112.466 386.432C114.231 388.196 116.767 388.968 118.201 387.535C119.635 386.432 119.304 383.895 117.429 381.8C115.664 380.035 113.128 379.263 111.694 380.697ZM99.7837 371.764C99.0118 373.198 100.115 374.962 102.32 376.065C104.085 377.168 106.29 376.837 107.062 375.293C107.834 373.859 106.732 372.095 104.526 370.992C102.32 370.33 100.556 370.661 99.7837 371.764ZM135.515 411.025C133.751 412.458 134.412 415.767 136.949 417.862C139.485 420.399 142.684 420.73 144.117 418.965C145.551 417.531 144.889 414.223 142.684 412.127C140.257 409.591 136.949 409.26 135.515 411.025ZM122.943 394.813C121.179 395.916 121.179 398.783 122.943 401.32C124.708 403.856 127.685 404.959 129.119 403.856C130.883 402.423 130.883 399.555 129.119 397.019C127.575 394.482 124.708 393.379 122.943 394.813Z" fill="black"/>
</g>
<defs>
<filter id="filter0_d_233_57" x="0" y="0" width="555.5" height="541.667" filterUnits="userSpaceOnUse" color-interpolation-filters="sRGB">
<feFlood flood-opacity="0" result="BackgroundImageFix"/>
<feColorMatrix in="SourceAlpha" type="matrix" values="0 0 0 0 0 0 0 0 0 0 0 0 0 0 0 0 0 0 127 0" result="hardAlpha"/>
<feOffset dy="4"/>
<feGaussianBlur stdDeviation="2"/>
<feComposite in2="hardAlpha" operator="out"/>
<feColorMatrix type="matrix" values="0 0 0 0 0 0 0 0 0 0 0 0 0 0 0 0 0 0 0.25 0"/>
<feBlend mode="normal" in2="BackgroundImageFix" result="effect1_dropShadow_233_57"/>
<feBlend mode="normal" in="SourceGraphic" in2="effect1_dropShadow_233_57" result="shape"/>
</filter>
</defs>
</svg>
