<svg width="539" height="538" viewBox="0 0 539 538" fill="none" xmlns="http://www.w3.org/2000/svg">
<rect x="4" y="2" width="529.6" height="525.6" rx="68" fill="white"/>
<g filter="url(#filter0_d_234_57)">
<path d="M456.082 451.576H377.611V328.688C377.611 299.384 377.088 261.66 336.798 261.66C295.928 261.66 289.675 293.588 289.675 326.554V451.568H211.204V198.859H286.536V233.395H287.59C295.129 220.505 306.023 209.901 319.112 202.712C332.201 195.523 346.994 192.02 361.917 192.574C441.45 192.574 456.115 244.887 456.115 312.944L456.082 451.576ZM122.663 164.316C113.656 164.317 104.852 161.648 97.3621 156.646C89.8726 151.644 84.0346 144.533 80.5865 136.212C77.1384 127.892 76.2349 118.736 77.9904 109.902C79.7459 101.069 84.0815 92.9538 90.4489 86.5841C96.8163 80.2144 104.93 75.8759 113.763 74.1172C122.596 72.3586 131.752 73.2587 140.074 76.7039C148.395 80.149 155.508 85.9844 160.513 93.4721C165.518 100.96 168.191 109.764 168.192 118.77C168.193 124.75 167.016 130.672 164.729 136.197C162.441 141.722 159.088 146.743 154.86 150.972C150.633 155.202 145.613 158.557 140.089 160.846C134.564 163.136 128.643 164.315 122.663 164.316ZM161.898 451.576H83.3456V198.859H161.898V451.576ZM495.203 0.369076H43.9141C33.6711 0.253484 23.8012 4.2092 16.4733 11.367C9.14542 18.5247 4.95899 28.299 4.83398 38.5418V491.703C4.95472 501.95 9.13846 511.731 16.4661 518.897C23.7938 526.062 33.666 530.025 43.9141 529.916H495.203C505.471 530.045 515.371 526.093 522.728 518.928C530.084 511.763 534.296 501.971 534.438 491.703V38.5092C534.292 28.246 530.077 18.4606 522.72 11.303C515.364 4.14544 505.466 0.201021 495.203 0.33638" fill="#0A66C2"/>
</g>
<defs>
<filter id="filter0_d_234_57" x="0.833984" y="0.333008" width="537.604" height="537.586" filterUnits="userSpaceOnUse" color-interpolation-filters="sRGB">
<feFlood flood-opacity="0" result="BackgroundImageFix"/>
<feColorMatrix in="SourceAlpha" type="matrix" values="0 0 0 0 0 0 0 0 0 0 0 0 0 0 0 0 0 0 127 0" result="hardAlpha"/>
<feOffset dy="4"/>
<feGaussianBlur stdDeviation="2"/>
<feComposite in2="hardAlpha" operator="out"/>
<feColorMatrix type="matrix" values="0 0 0 0 0 0 0 0 0 0 0 0 0 0 0 0 0 0 0.25 0"/>
<feBlend mode="normal" in2="BackgroundImageFix" result="effect1_dropShadow_234_57"/>
<feBlend mode="normal" in="SourceGraphic" in2="effect1_dropShadow_234_57" result="shape"/>
</filter>
</defs>
</svg>
