<svg width="161" height="161" viewBox="0 0 161 161" fill="none" xmlns="http://www.w3.org/2000/svg">
<g filter="url(#filter0_ddi_66_48)">
<path d="M148 73.5C148 110.779 117.779 141 80.5 141C43.2208 141 13 110.779 13 73.5C13 36.2208 43.2208 6 80.5 6C117.779 6 148 36.2208 148 73.5Z" fill="white"/>
</g>
<g clip-path="url(#clip0_66_48)">
<path d="M71.7033 83.482C70.2896 91.1718 68.4256 96.7663 66.1113 100.242C64.3079 102.928 62.3326 104.272 60.1817 104.272C59.6077 104.272 58.9015 104.099 58.0616 103.755V101.899C58.471 101.961 58.9522 101.992 59.5051 101.992C60.5082 101.992 61.3171 101.715 61.9331 101.16C62.6703 100.483 63.0389 99.7237 63.0389 98.8813C63.0389 98.3062 62.7507 97.125 62.178 95.3389L58.3684 83.4771H61.7785L64.512 92.3493C65.1268 94.363 65.3828 95.7693 65.2801 96.5708C66.7768 92.5658 67.8207 88.202 68.4144 83.4845H71.7021M56.6491 98.822H53.1784C53.0559 92.9467 52.7182 87.424 52.1641 82.2476H52.1357L46.8504 98.822H44.2059L38.9529 82.2476H38.9219C38.5323 87.2174 38.2874 92.7402 38.1847 98.822H35.0195C35.2236 91.4278 35.7369 84.4987 36.5545 78.0298H40.8564L45.8646 93.3054H45.8955L50.9346 78.0298H55.051C55.9515 85.607 56.4846 92.5386 56.6466 98.822" fill="#00758F"/>
<path d="M117.914 98.8197H108.052V78.0275H111.371V96.2593H117.914V98.8172M93.1141 94.6576C92.273 93.3019 91.8537 91.1275 91.8537 88.128C91.8537 82.8922 93.4418 80.2725 96.6157 80.2725C98.2756 80.2725 99.494 80.8996 100.272 82.1513C101.111 83.507 101.531 85.6641 101.531 88.6215C101.531 93.8993 99.943 96.5401 96.7691 96.5401C95.1104 96.5401 93.8908 95.9142 93.1141 94.66M105.464 99.3206L101.652 97.4356C101.991 97.1561 102.314 96.8543 102.605 96.5079C104.225 94.5994 105.034 91.7756 105.034 88.0365C105.034 81.1569 102.34 77.7158 96.9534 77.7158C94.3114 77.7158 92.252 78.5878 90.7776 80.3356C89.1572 82.2453 88.3496 85.0605 88.3496 88.7761C88.3496 92.4311 89.067 95.1127 90.4993 96.8159C91.8054 98.3559 93.7808 99.1265 96.4265 99.1265C97.4135 99.1265 98.3189 99.0052 99.1415 98.7616L104.105 101.658L105.458 99.3206M86.9049 93.0558C86.9049 94.8196 86.2592 96.2668 84.9704 97.3997C83.6815 98.5266 81.9486 99.0931 79.7804 99.0931C77.7518 99.0931 75.7852 98.4412 73.8804 97.1511L74.7722 95.3651C76.4111 96.1864 77.8941 96.5958 79.225 96.5958C80.4743 96.5958 81.4514 96.3175 82.1589 95.767C82.8639 95.2117 83.2882 94.4386 83.2882 93.4578C83.2882 92.2233 82.4285 91.1683 80.854 90.2827C79.3948 89.4685 77.941 88.6447 76.4927 87.8113C74.9181 86.6586 74.1278 85.4229 74.1278 83.387C74.1278 81.7023 74.7165 80.3405 75.8928 79.3052C77.0716 78.2662 78.5929 77.7467 80.4557 77.7467C82.3815 77.7467 84.1317 78.2625 85.7088 79.2904L84.9073 81.0752C83.5591 80.5013 82.2282 80.2131 80.9158 80.2131C79.8521 80.2131 79.0308 80.4704 78.4594 80.9849C77.8842 81.4958 77.5292 82.1538 77.5292 82.9553C77.5292 84.1872 78.4074 85.2559 80.0265 86.1589C81.4984 86.9591 84.4781 88.6623 84.4781 88.6623C86.0984 89.8126 86.9061 91.0384 86.9061 93.0583M120.276 98.8197H120.827V96.7046H121.545V96.2717H119.529V96.7046H120.276V98.8197ZM124.461 98.8197H124.979V96.2717H124.2L123.565 98.0083L122.874 96.2717H122.123V98.8197H122.614V96.8803H122.641L123.365 98.8197H123.738L124.461 96.8803V98.8197Z" fill="#F29111"/>
<path d="M90.3307 43.0122C89.4538 42.9999 88.6894 43.3301 88.2948 44.3011C87.6182 45.935 89.2967 47.5417 89.8743 48.3717C90.2998 48.9493 90.8515 49.6036 91.1508 50.2555C91.3264 50.6822 91.3772 51.1362 91.5528 51.5876C91.9536 52.6934 92.3283 53.9241 92.8552 54.9557C93.1298 55.4838 93.4304 56.0367 93.7817 56.5117C93.9833 56.79 94.3333 56.9137 94.4088 57.3676C94.0587 57.8686 94.0315 58.6231 93.8324 59.2527C92.9295 62.0913 93.2807 65.6091 94.5585 67.6945C94.9592 68.3216 95.9116 69.7044 97.1906 69.1763C98.3186 68.7248 98.0688 67.2925 98.3928 66.037C98.4683 65.7327 98.4176 65.5336 98.5685 65.332V65.3839C98.9185 66.0865 99.271 66.7631 99.5963 67.4693C100.374 68.6988 101.726 69.9802 102.854 70.8337C103.454 71.2876 103.93 72.0656 104.682 72.3427V72.266H104.633C104.482 72.0409 104.257 71.9395 104.057 71.7651C103.605 71.3124 103.105 70.7595 102.754 70.2561C101.703 68.851 100.774 67.2925 99.9488 65.6845C99.5468 64.904 99.1968 64.0506 98.8703 63.2726C98.7206 62.972 98.7206 62.5181 98.4695 62.3684C98.0923 62.92 97.5418 63.3987 97.2672 64.0741C96.791 65.1564 96.7416 66.4872 96.5647 67.8689C96.4657 67.8948 96.5152 67.8689 96.4657 67.9183C95.6642 67.718 95.3884 66.8892 95.0866 66.1867C94.3346 64.4018 94.2084 61.536 94.8615 59.4778C95.0347 58.9509 95.7892 57.2934 95.4874 56.79C95.3365 56.3101 94.8355 56.0355 94.5597 55.6582C94.2105 55.1512 93.9091 54.6129 93.6592 54.0503C93.0581 52.6439 92.7563 51.0854 92.1057 49.6791C91.8051 49.0235 91.277 48.347 90.8527 47.7446C90.3753 47.0655 89.8508 46.5881 89.4736 45.7854C89.3499 45.5083 89.1743 45.0556 89.3746 44.755C89.4229 44.5534 89.5243 44.478 89.7259 44.4272C90.0487 44.1514 90.9776 44.5015 91.3029 44.6524C92.2306 45.0284 93.0074 45.3821 93.7829 45.9078C94.133 46.1601 94.509 46.6376 94.9604 46.7637H95.4874C96.2889 46.9394 97.1918 46.8132 97.9438 47.0396C99.271 47.4663 100.473 48.0946 101.552 48.7725C104.871 50.895 107.568 53.86 109.368 57.3652C109.67 57.9428 109.796 58.4709 110.07 59.0721C110.597 60.3065 111.249 61.5619 111.775 62.7667C112.3 63.9479 112.803 65.1539 113.556 66.1335C113.929 66.6604 115.434 66.9375 116.11 67.2133C116.611 67.4384 117.388 67.64 117.839 67.9159C118.693 68.4428 119.541 69.0464 120.344 69.6252C120.745 69.927 121.996 70.5542 122.072 71.0576C120.068 71.0081 118.515 71.2085 117.211 71.7626C116.836 71.9123 116.235 71.9123 116.184 72.3897C116.386 72.5901 116.409 72.9166 116.586 73.1937C116.887 73.6971 117.411 74.3737 117.889 74.7274C118.416 75.1294 118.941 75.5302 119.493 75.8815C120.47 76.4875 121.572 76.8376 122.523 77.4399C123.076 77.7912 123.627 78.2439 124.178 78.6212C124.453 78.8216 124.627 79.1493 124.98 79.273V79.1963C124.803 78.9712 124.753 78.6447 124.579 78.3923C124.329 78.1425 124.078 77.9161 123.827 77.6651C123.093 76.6921 122.215 75.837 121.222 75.1294C120.419 74.5741 118.664 73.8196 118.34 72.8931L118.289 72.8424C118.84 72.7917 119.493 72.5901 120.02 72.4379C120.87 72.2116 121.648 72.2623 122.525 72.0372C122.925 71.9358 123.326 71.8096 123.729 71.6871V71.4583C123.275 71.0081 122.951 70.4033 122.476 69.9765C121.2 68.872 119.795 67.7922 118.341 66.8855C117.562 66.3833 116.56 66.058 115.734 65.6301C115.435 65.4792 114.934 65.405 114.757 65.1526C114.307 64.5997 114.054 63.8725 113.73 63.2181C112.99 61.7876 112.304 60.3291 111.676 58.8457C111.224 57.8661 110.949 56.8877 110.398 55.9823C107.815 51.7101 105.01 49.1237 100.701 46.5856C99.7732 46.0575 98.6711 45.8311 97.4948 45.5553C96.8665 45.5293 96.2419 45.4811 95.6148 45.4563C95.2128 45.2782 94.8108 44.8008 94.4607 44.5744C93.5677 44.0092 91.794 43.032 90.3332 43.0098L90.3307 43.0122ZM96.5127 49.2227C96.0873 49.2227 95.7879 49.2746 95.4861 49.3488V49.3983H95.5344C95.736 49.8003 96.0872 50.0786 96.3359 50.4299C96.5375 50.8319 96.7131 51.2326 96.9135 51.6346L96.963 51.5852C97.3155 51.3341 97.4911 50.9321 97.4911 50.3285C97.339 50.1516 97.3155 49.9772 97.1893 49.8003C97.0397 49.5505 96.7131 49.4243 96.5127 49.2227Z" fill="#00758F"/>
</g>
<defs>
<filter id="filter0_ddi_66_48" x="0" y="0" width="161" height="161" filterUnits="userSpaceOnUse" color-interpolation-filters="sRGB">
<feFlood flood-opacity="0" result="BackgroundImageFix"/>
<feColorMatrix in="SourceAlpha" type="matrix" values="0 0 0 0 0 0 0 0 0 0 0 0 0 0 0 0 0 0 127 0" result="hardAlpha"/>
<feOffset dy="7"/>
<feGaussianBlur stdDeviation="6.5"/>
<feComposite in2="hardAlpha" operator="out"/>
<feColorMatrix type="matrix" values="0 0 0 0 0 0 0 0 0 0 0 0 0 0 0 0 0 0 0.3 0"/>
<feBlend mode="normal" in2="BackgroundImageFix" result="effect1_dropShadow_66_48"/>
<feColorMatrix in="SourceAlpha" type="matrix" values="0 0 0 0 0 0 0 0 0 0 0 0 0 0 0 0 0 0 127 0" result="hardAlpha"/>
<feOffset dy="4"/>
<feGaussianBlur stdDeviation="2"/>
<feComposite in2="hardAlpha" operator="out"/>
<feColorMatrix type="matrix" values="0 0 0 0 0 0 0 0 0 0 0 0 0 0 0 0 0 0 0.25 0"/>
<feBlend mode="normal" in2="effect1_dropShadow_66_48" result="effect2_dropShadow_66_48"/>
<feBlend mode="normal" in="SourceGraphic" in2="effect2_dropShadow_66_48" result="shape"/>
<feColorMatrix in="SourceAlpha" type="matrix" values="0 0 0 0 0 0 0 0 0 0 0 0 0 0 0 0 0 0 127 0" result="hardAlpha"/>
<feOffset dy="-3"/>
<feComposite in2="hardAlpha" operator="arithmetic" k2="-1" k3="1"/>
<feColorMatrix type="matrix" values="0 0 0 0 0 0 0 0 0 0 0 0 0 0 0 0 0 0 0.2 0"/>
<feBlend mode="normal" in2="shape" result="effect3_innerShadow_66_48"/>
</filter>
<clipPath id="clip0_66_48">
<rect width="90" height="61.272" fill="white" transform="translate(35 43)"/>
</clipPath>
</defs>
</svg>
