<svg width="573" height="577" viewBox="0 0 573 577" fill="none" xmlns="http://www.w3.org/2000/svg">
<g filter="url(#filter0_f_232_60)">
<g filter="url(#filter1_d_232_60)">
<path d="M24.2141 289.199C24.197 335.783 36.3361 381.256 59.4102 421.339L22 558.297L161.788 521.545C200.302 542.606 243.666 553.704 287.795 553.721H287.908C433.236 553.721 551.538 435.138 551.6 289.414C551.624 218.786 524.22 152.379 474.438 102.421C424.648 52.4644 358.443 24.9385 287.908 24.9072C142.557 24.9072 24.2719 143.471 24.2141 289.199Z" fill="black"/>
</g>
<path d="M24.2141 289.199C24.197 335.783 36.3361 381.256 59.4102 421.339L22 558.297L161.788 521.545C200.302 542.606 243.666 553.704 287.795 553.721H287.908C433.236 553.721 551.538 435.138 551.6 289.414C551.624 218.786 524.22 152.379 474.438 102.421C424.648 52.4644 358.443 24.9385 287.908 24.9072C142.557 24.9072 24.2719 143.471 24.2141 289.199Z" fill="black" fill-opacity="0.2"/>
</g>
<path d="M33.6766 286.447C33.6634 331.25 45.3695 374.997 67.6307 413.557L31.5469 545.311L166.376 509.957C203.523 530.203 245.346 540.887 287.911 540.902H288.025C428.194 540.902 542.295 426.838 542.353 286.645C542.382 218.709 515.949 154.831 467.926 106.772C419.911 58.7142 356.052 32.2343 288.015 32.2039C147.83 32.2039 33.7335 146.257 33.6766 286.447Z" fill="url(#paint0_linear_232_60)"/>
<path d="M24.596 286.36C24.5789 332.779 36.7076 378.091 59.7609 418.033L22.3838 554.507L162.049 517.886C200.529 538.871 243.854 549.931 287.945 549.947H288.059C433.259 549.947 551.457 431.783 551.519 286.574C551.543 216.195 524.163 150.022 474.424 100.24C424.679 50.4593 358.532 23.0319 288.059 22.9997C142.836 22.9997 24.6538 141.145 24.595 286.36H24.596ZM107.768 411.156L102.554 402.875C80.6332 368.02 69.0606 327.739 69.0795 286.378C69.126 165.679 167.354 67.4852 288.143 67.4852C346.635 67.5089 401.609 90.3081 442.957 131.684C484.301 173.057 507.052 228.06 507.035 286.556C506.984 407.258 408.752 505.466 288.06 505.466H287.975C248.675 505.445 210.134 494.894 176.52 474.947L168.52 470.206L85.6402 491.934L107.768 411.156Z" fill="url(#paint1_linear_232_60)"/>
<path fill-rule="evenodd" clip-rule="evenodd" d="M222.212 176.262C217.28 165.3 212.09 165.079 207.398 164.887C203.561 164.723 199.168 164.734 194.782 164.734C190.394 164.734 183.261 166.382 177.23 172.969C171.195 179.557 154.187 195.481 154.187 227.869C154.187 260.26 177.778 291.555 181.067 295.951C184.358 300.341 226.609 368.928 293.518 395.315C349.127 417.244 360.443 412.882 372.513 411.785C384.583 410.688 411.461 395.864 416.946 380.492C422.433 365.122 422.433 351.949 420.787 349.194C419.141 346.451 414.752 344.805 408.169 341.513C401.584 338.221 369.221 322.293 363.186 320.099C357.151 317.904 352.761 316.807 348.373 323.398C343.984 329.982 331.377 344.805 327.534 349.195C323.694 353.594 319.854 354.143 313.27 350.851C306.686 347.549 285.484 340.604 260.332 318.179C240.763 300.732 227.552 279.184 223.71 272.594C219.87 266.009 223.299 262.443 226.601 259.162C229.557 256.212 233.186 251.478 236.477 247.633C239.761 243.79 240.86 241.046 243.054 236.657C245.248 232.261 244.151 228.416 242.505 225.125C240.859 221.833 228.066 189.277 222.212 176.262Z" fill="white"/>
<defs>
<filter id="filter0_f_232_60" x="18.5863" y="21.4935" width="536.428" height="540.217" filterUnits="userSpaceOnUse" color-interpolation-filters="sRGB">
<feFlood flood-opacity="0" result="BackgroundImageFix"/>
<feBlend mode="normal" in="SourceGraphic" in2="BackgroundImageFix" result="shape"/>
<feGaussianBlur stdDeviation="1.70686" result="effect1_foregroundBlur_232_60"/>
</filter>
<filter id="filter1_d_232_60" x="0.664278" y="0.157789" width="572.272" height="576.061" filterUnits="userSpaceOnUse" color-interpolation-filters="sRGB">
<feFlood flood-opacity="0" result="BackgroundImageFix"/>
<feColorMatrix in="SourceAlpha" type="matrix" values="0 0 0 0 0 0 0 0 0 0 0 0 0 0 0 0 0 0 127 0" result="hardAlpha"/>
<feOffset dy="-3.41372"/>
<feGaussianBlur stdDeviation="10.6679"/>
<feComposite in2="hardAlpha" operator="out"/>
<feColorMatrix type="matrix" values="0 0 0 0 0 0 0 0 0 0 0 0 0 0 0 0 0 0 0.21 0"/>
<feBlend mode="normal" in2="BackgroundImageFix" result="effect1_dropShadow_232_60"/>
<feBlend mode="normal" in="SourceGraphic" in2="effect1_dropShadow_232_60" result="shape"/>
</filter>
<linearGradient id="paint0_linear_232_60" x1="286.949" y1="545.311" x2="286.949" y2="32.2034" gradientUnits="userSpaceOnUse">
<stop stop-color="#20B038"/>
<stop offset="1" stop-color="#60D66A"/>
</linearGradient>
<linearGradient id="paint1_linear_232_60" x1="286.952" y1="554.508" x2="286.952" y2="23" gradientUnits="userSpaceOnUse">
<stop stop-color="#F9F9F9"/>
<stop offset="1" stop-color="white"/>
</linearGradient>
</defs>
</svg>
