<svg width="161" height="161" viewBox="0 0 161 161" fill="none" xmlns="http://www.w3.org/2000/svg">
<g filter="url(#filter0_ddi_211_56)">
<path d="M148 73.5C148 110.779 117.779 141 80.5 141C43.2208 141 13 110.779 13 73.5C13 36.2208 43.2208 6 80.5 6C117.779 6 148 36.2208 148 73.5Z" fill="white"/>
</g>
<mask id="mask0_211_56" style="mask-type:luminance" maskUnits="userSpaceOnUse" x="30" y="58" width="100" height="32">
<path d="M129.125 79.8414C129 79.8414 128.75 79.9664 128.75 80.2164C127.752 83.0874 126.379 84.8354 125.254 84.8354C124.629 84.8354 124.381 84.0854 124.381 82.9624C124.381 80.0914 126.129 73.9743 127.002 71.2283C127.127 70.8533 127.127 70.6033 127.127 70.3552C127.127 69.6052 126.627 69.1072 125.629 69.1072C124.506 69.1072 123.133 69.6072 122.008 71.7282C121.633 69.8552 120.26 68.9822 118.512 68.9822C116.389 68.9822 114.393 70.3552 112.77 72.4782C111.147 74.6012 109.149 75.3493 107.776 74.9743C108.774 72.3532 109.274 70.4802 109.274 69.1072C109.274 66.8592 108.151 65.4862 106.403 65.4862C103.657 65.4862 102.159 68.1072 102.159 70.8552C102.159 72.9782 103.157 75.0993 105.155 76.2243C103.407 80.2183 100.786 83.8393 99.9107 83.8393C98.6627 83.8393 98.2877 77.7223 98.4127 73.2282C98.4127 70.7322 98.6627 70.6072 98.6627 69.8572C98.6627 69.3572 98.4127 69.1072 97.2897 69.1072C94.6687 69.1072 93.7937 71.3552 93.6687 73.9763C93.6687 74.9743 93.4187 75.9743 93.1687 76.8473C92.0457 80.8413 89.7977 83.8393 88.2996 83.8393C87.5497 83.8393 87.4266 83.0894 87.4266 82.2163C87.4266 79.3453 89.0496 75.7243 89.0496 72.7282C89.0496 70.4802 88.0516 69.1072 86.1786 69.1072C84.0556 69.1072 81.0595 71.7282 78.4385 76.5973C79.3115 72.8513 79.6865 69.2322 77.0655 69.2322C76.4405 69.2322 75.9425 69.3572 75.4425 69.6072C75.0675 69.7322 74.8175 70.1072 74.9425 70.4802C75.1925 74.4743 71.6965 84.5874 68.4504 84.5874C67.8254 84.5874 67.5774 83.9624 67.5774 82.9644C67.5774 80.0933 69.3254 74.1012 70.1984 71.2302C70.3234 70.8552 70.3234 70.6052 70.3234 70.2322C70.3234 69.4822 69.8234 69.1092 68.8254 69.1092C67.7024 69.1092 66.3294 69.6091 65.2044 71.7302C64.8294 69.8572 63.4564 68.9842 61.7084 68.9842C58.7123 68.9842 55.4663 72.1052 54.0933 76.0993C52.2203 81.4683 48.2262 86.7104 42.9822 86.7104C38.2381 86.7104 35.7421 82.7163 35.7421 76.4742C35.1171 67.6111 41.7341 60.2441 46.6032 60.2441C48.9742 60.2441 50.0992 61.7421 50.0992 63.9901C50.0992 66.7362 48.6012 68.1092 48.6012 69.1092C48.6012 69.4842 48.8512 69.7341 49.3512 69.7341C51.4742 69.7341 53.9702 67.2381 53.9702 63.7421C53.9702 60.2461 51.2242 58 46.3551 58C38.2401 57.9941 30 66.1092 30 76.5953C30 84.9604 34.1191 89.9525 41.2361 89.9525C46.1052 89.9525 50.3492 86.2065 52.5972 81.7124C52.8472 85.3334 54.4702 87.3295 57.0913 87.3295C59.3393 87.3295 61.2103 85.9565 62.5833 83.5835C63.0833 86.0795 64.5814 87.2045 66.3294 87.2045C68.4524 87.2045 70.2004 85.8315 71.9464 83.3335C71.9464 85.3315 72.3214 87.0795 74.0695 87.0795C74.8194 87.0795 75.8175 86.9545 75.9425 86.2065C77.6905 78.8414 82.1845 72.8493 83.4325 72.8493C83.8075 72.8493 83.9325 73.2243 83.9325 73.7224C83.9325 75.7204 82.5595 79.8394 82.5595 82.4605C82.5595 85.3315 83.8075 87.2045 86.3055 87.2045C89.0516 87.2045 91.9226 83.8335 93.6706 78.8394C94.2956 83.4585 95.5436 87.2045 97.5417 87.2045C99.9127 87.2045 104.284 82.0855 106.905 76.7184C107.903 76.8434 109.526 76.8434 110.899 75.7204C110.274 77.3434 109.901 79.0914 109.901 80.8394C109.901 85.8334 112.272 87.2065 114.395 87.2065C116.643 87.2065 118.514 85.8334 119.887 83.4604C120.387 85.5834 121.51 87.0815 123.633 87.0815C127.004 87.0815 130 83.5854 130 80.8394C129.873 80.3414 129.498 79.8414 129.125 79.8414ZM59.0873 84.5854C57.7143 84.5854 57.2143 83.2124 57.2143 81.2144C57.2143 77.7184 59.5854 71.7263 62.2084 71.7263C63.3314 71.7263 63.7064 73.0993 63.7064 74.7223C63.7064 78.2184 61.4603 84.5854 59.0873 84.5854ZM105.778 73.9743C104.905 72.9763 104.655 71.7263 104.655 70.4783C104.655 68.9803 105.155 67.8572 105.778 67.8572C106.403 67.8572 106.651 68.4822 106.651 69.3552C106.653 70.7283 106.153 72.8513 105.778 73.9743ZM116.391 84.5854C115.018 84.5854 114.518 82.9624 114.518 81.2144C114.518 77.8434 116.889 71.7263 119.512 71.7263C120.635 71.7263 121.01 73.0993 121.01 74.7223C121.01 78.2184 118.762 84.5854 116.391 84.5854Z" fill="white"/>
</mask>
<g mask="url(#mask0_211_56)">
<path d="M130.248 56.2461H29.625V91.5755H130.248V56.2461Z" fill="url(#paint0_linear_211_56)"/>
</g>
<defs>
<filter id="filter0_ddi_211_56" x="0" y="0" width="161" height="161" filterUnits="userSpaceOnUse" color-interpolation-filters="sRGB">
<feFlood flood-opacity="0" result="BackgroundImageFix"/>
<feColorMatrix in="SourceAlpha" type="matrix" values="0 0 0 0 0 0 0 0 0 0 0 0 0 0 0 0 0 0 127 0" result="hardAlpha"/>
<feOffset dy="7"/>
<feGaussianBlur stdDeviation="6.5"/>
<feComposite in2="hardAlpha" operator="out"/>
<feColorMatrix type="matrix" values="0 0 0 0 0 0 0 0 0 0 0 0 0 0 0 0 0 0 0.3 0"/>
<feBlend mode="normal" in2="BackgroundImageFix" result="effect1_dropShadow_211_56"/>
<feColorMatrix in="SourceAlpha" type="matrix" values="0 0 0 0 0 0 0 0 0 0 0 0 0 0 0 0 0 0 127 0" result="hardAlpha"/>
<feOffset dy="4"/>
<feGaussianBlur stdDeviation="2"/>
<feComposite in2="hardAlpha" operator="out"/>
<feColorMatrix type="matrix" values="0 0 0 0 0 0 0 0 0 0 0 0 0 0 0 0 0 0 0.25 0"/>
<feBlend mode="normal" in2="effect1_dropShadow_211_56" result="effect2_dropShadow_211_56"/>
<feBlend mode="normal" in="SourceGraphic" in2="effect2_dropShadow_211_56" result="shape"/>
<feColorMatrix in="SourceAlpha" type="matrix" values="0 0 0 0 0 0 0 0 0 0 0 0 0 0 0 0 0 0 127 0" result="hardAlpha"/>
<feOffset dy="-3"/>
<feComposite in2="hardAlpha" operator="arithmetic" k2="-1" k3="1"/>
<feColorMatrix type="matrix" values="0 0 0 0 0 0 0 0 0 0 0 0 0 0 0 0 0 0 0.2 0"/>
<feBlend mode="normal" in2="shape" result="effect3_innerShadow_211_56"/>
</filter>
<linearGradient id="paint0_linear_211_56" x1="51.1765" y1="43.2703" x2="101.906" y2="97.3186" gradientUnits="userSpaceOnUse">
<stop stop-color="#00C4CC"/>
<stop offset="0.9122" stop-color="#7A28EB"/>
<stop offset="1" stop-color="#7A28EB"/>
</linearGradient>
</defs>
</svg>
