<svg width="161" height="161" viewBox="0 0 161 161" fill="none" xmlns="http://www.w3.org/2000/svg">
<g filter="url(#filter0_ddi_199_117)">
<path d="M148 73.5C148 110.779 117.779 141 80.5 141C43.2208 141 13 110.779 13 73.5C13 36.2208 43.2208 6 80.5 6C117.779 6 148 36.2208 148 73.5Z" fill="white"/>
</g>
<g clip-path="url(#clip0_199_117)">
<path d="M49.1871 107.756L43 32.1421L116.89 32.294L110.348 107.756L80.2239 116.478L49.1871 107.756Z" fill="#1B73BA"/>
<path d="M80.2236 109.175V39.3433L110.652 39.4446L105.226 101.923L80.2236 109.175Z" fill="#1C88C7"/>
<path d="M103.096 48.269H56.2871L57.5552 57.3969H79.7674L57.9103 66.7791L59.1778 75.603H91.3813L90.2145 87.926L79.311 90.0563L69.4222 87.5208L68.6613 80.5221H59.5836L60.8004 95.0773L80.2745 100.503L98.9377 94.5702L101.321 66.1195H81.5926L103.095 57.1943L103.096 48.269Z" fill="white"/>
</g>
<defs>
<filter id="filter0_ddi_199_117" x="0" y="0" width="161" height="161" filterUnits="userSpaceOnUse" color-interpolation-filters="sRGB">
<feFlood flood-opacity="0" result="BackgroundImageFix"/>
<feColorMatrix in="SourceAlpha" type="matrix" values="0 0 0 0 0 0 0 0 0 0 0 0 0 0 0 0 0 0 127 0" result="hardAlpha"/>
<feOffset dy="7"/>
<feGaussianBlur stdDeviation="6.5"/>
<feComposite in2="hardAlpha" operator="out"/>
<feColorMatrix type="matrix" values="0 0 0 0 0 0 0 0 0 0 0 0 0 0 0 0 0 0 0.3 0"/>
<feBlend mode="normal" in2="BackgroundImageFix" result="effect1_dropShadow_199_117"/>
<feColorMatrix in="SourceAlpha" type="matrix" values="0 0 0 0 0 0 0 0 0 0 0 0 0 0 0 0 0 0 127 0" result="hardAlpha"/>
<feOffset dy="4"/>
<feGaussianBlur stdDeviation="2"/>
<feComposite in2="hardAlpha" operator="out"/>
<feColorMatrix type="matrix" values="0 0 0 0 0 0 0 0 0 0 0 0 0 0 0 0 0 0 0.25 0"/>
<feBlend mode="normal" in2="effect1_dropShadow_199_117" result="effect2_dropShadow_199_117"/>
<feBlend mode="normal" in="SourceGraphic" in2="effect2_dropShadow_199_117" result="shape"/>
<feColorMatrix in="SourceAlpha" type="matrix" values="0 0 0 0 0 0 0 0 0 0 0 0 0 0 0 0 0 0 127 0" result="hardAlpha"/>
<feOffset dy="-3"/>
<feComposite in2="hardAlpha" operator="arithmetic" k2="-1" k3="1"/>
<feColorMatrix type="matrix" values="0 0 0 0 0 0 0 0 0 0 0 0 0 0 0 0 0 0 0.2 0"/>
<feBlend mode="normal" in2="shape" result="effect3_innerShadow_199_117"/>
</filter>
<clipPath id="clip0_199_117">
<rect width="73.89" height="84.6199" fill="white" transform="translate(43 32)"/>
</clipPath>
</defs>
</svg>
