<svg width="161" height="161" viewBox="0 0 161 161" fill="none" xmlns="http://www.w3.org/2000/svg">
<g filter="url(#filter0_ddi_199_140)">
<path d="M148 73.5C148 110.779 117.779 141 80.5 141C43.2208 141 13 110.779 13 73.5C13 36.2208 43.2208 6 80.5 6C117.779 6 148 36.2208 148 73.5Z" fill="white"/>
</g>
<g clip-path="url(#clip0_199_140)">
<path d="M47.0601 59H51.7162V80.5529C49.3278 81.0064 47.574 81.188 45.6691 81.188C39.9846 81.1877 37.0215 78.618 37.0215 73.6893C37.0215 68.9422 40.1662 65.8584 45.034 65.8584C45.7898 65.8584 46.3643 65.9186 47.0601 66.1V59ZM47.0601 69.849C46.5158 69.6678 46.0623 69.6074 45.4877 69.6074C43.1293 69.6074 41.7686 71.0588 41.7686 73.5984C41.7686 76.078 43.0688 77.4385 45.4575 77.4385C45.9714 77.4385 46.3949 77.4084 47.0601 77.3177V69.849Z" fill="#092E20"/>
<path d="M59.1229 66.1909V76.9849C59.1229 80.704 58.8506 82.488 58.0345 84.0299C57.2785 85.5118 56.2806 86.4488 54.2247 87.4772L49.9009 85.4211C51.957 84.4534 52.9547 83.6071 53.5896 82.3064C54.2549 80.9763 54.4668 79.434 54.4668 75.3825V66.1909H59.1229ZM54.4668 59.0249H59.1229V63.8022H54.4668V59.0249ZM61.9355 67.2491C63.9917 66.2818 65.9569 65.8585 68.1037 65.8585C70.4924 65.8585 72.0645 66.4932 72.7601 67.733C73.153 68.4284 73.2739 69.3354 73.2739 71.2707V80.7343C71.1874 81.0366 68.557 81.2484 66.6221 81.2484C62.7217 81.2484 60.9678 79.8873 60.9678 76.864C60.9678 73.5981 63.296 72.0865 69.0105 71.6025V70.5746C69.0105 69.728 68.5873 69.4259 67.408 69.4259C65.6846 69.4259 63.7495 69.9096 61.9351 70.8471L61.9355 67.2491ZM69.2226 74.6569C66.1383 74.9592 65.1404 75.443 65.1404 76.6525C65.1404 77.5593 65.7151 77.9826 66.9849 77.9826C67.6805 77.9826 68.3152 77.9223 69.2224 77.7712L69.2226 74.6569ZM75.5418 66.9165C78.2931 66.1909 80.5608 65.8585 82.8588 65.8585C85.2474 65.8585 86.9709 66.4025 87.9993 67.4609C88.9668 68.4584 89.2689 69.5468 89.2689 71.8754V81.0064H84.6125V72.0568C84.6125 70.273 84.0078 69.6075 82.345 69.6075C81.7101 69.6075 81.1356 69.668 80.198 69.9401V81.0064H75.5418V66.9165ZM91.079 83.5462C92.712 84.3929 94.3447 84.7856 96.068 84.7856C99.1214 84.7856 100.422 83.5462 100.422 80.5829V80.4922C99.5148 80.9455 98.6074 81.1271 97.3983 81.1271C93.3163 81.1271 90.7156 78.4361 90.7156 74.1732C90.7156 68.8815 94.5559 65.8883 101.359 65.8883C103.354 65.8883 105.199 66.0998 107.436 66.5533L105.842 69.912C104.602 69.6701 105.743 69.8796 104.806 69.7889V70.2728L104.866 72.2378L104.896 74.7778C104.926 75.4126 104.926 76.0477 104.957 76.6826V77.9528C104.957 81.9438 104.624 83.8183 103.627 85.3604C102.175 87.6283 99.6654 88.7468 96.0976 88.7468C94.2834 88.7468 92.7116 88.4747 91.0786 87.8398L91.079 83.5462ZM100.331 69.6377H99.8478C98.941 69.6075 97.8828 69.8492 97.1568 70.3027C96.0383 70.9378 95.4633 72.0868 95.4633 73.7195C95.4633 76.0479 96.6128 77.3781 98.6687 77.3781C99.3036 77.3781 99.8177 77.257 100.422 77.0758V75.4734C100.422 74.929 100.392 74.3239 100.392 73.6894L100.362 71.5428L100.332 70.0007L100.331 69.6377ZM114.665 65.7978C119.321 65.7978 122.164 68.7309 122.164 73.4778C122.164 78.346 119.201 81.3998 114.484 81.3998C109.827 81.3998 106.955 78.4667 106.955 73.7501C106.955 68.8514 109.918 65.7978 114.665 65.7978ZM114.574 77.6502C116.358 77.6502 117.416 76.1686 117.416 73.5985C117.416 71.0589 116.388 69.547 114.605 69.547C112.76 69.547 111.702 71.0289 111.702 73.5985C111.702 76.1688 112.76 77.6502 114.574 77.6502Z" fill="#092E20"/>
</g>
<defs>
<filter id="filter0_ddi_199_140" x="0" y="0" width="161" height="161" filterUnits="userSpaceOnUse" color-interpolation-filters="sRGB">
<feFlood flood-opacity="0" result="BackgroundImageFix"/>
<feColorMatrix in="SourceAlpha" type="matrix" values="0 0 0 0 0 0 0 0 0 0 0 0 0 0 0 0 0 0 127 0" result="hardAlpha"/>
<feOffset dy="7"/>
<feGaussianBlur stdDeviation="6.5"/>
<feComposite in2="hardAlpha" operator="out"/>
<feColorMatrix type="matrix" values="0 0 0 0 0 0 0 0 0 0 0 0 0 0 0 0 0 0 0.3 0"/>
<feBlend mode="normal" in2="BackgroundImageFix" result="effect1_dropShadow_199_140"/>
<feColorMatrix in="SourceAlpha" type="matrix" values="0 0 0 0 0 0 0 0 0 0 0 0 0 0 0 0 0 0 127 0" result="hardAlpha"/>
<feOffset dy="4"/>
<feGaussianBlur stdDeviation="2"/>
<feComposite in2="hardAlpha" operator="out"/>
<feColorMatrix type="matrix" values="0 0 0 0 0 0 0 0 0 0 0 0 0 0 0 0 0 0 0.25 0"/>
<feBlend mode="normal" in2="effect1_dropShadow_199_140" result="effect2_dropShadow_199_140"/>
<feBlend mode="normal" in="SourceGraphic" in2="effect2_dropShadow_199_140" result="shape"/>
<feColorMatrix in="SourceAlpha" type="matrix" values="0 0 0 0 0 0 0 0 0 0 0 0 0 0 0 0 0 0 127 0" result="hardAlpha"/>
<feOffset dy="-3"/>
<feComposite in2="hardAlpha" operator="arithmetic" k2="-1" k3="1"/>
<feColorMatrix type="matrix" values="0 0 0 0 0 0 0 0 0 0 0 0 0 0 0 0 0 0 0.2 0"/>
<feBlend mode="normal" in2="shape" result="effect3_innerShadow_199_140"/>
</filter>
<clipPath id="clip0_199_140">
<rect width="85.1852" height="29.7467" fill="white" transform="translate(37 59)"/>
</clipPath>
</defs>
</svg>
