<svg width="161" height="161" viewBox="0 0 161 161" fill="none" xmlns="http://www.w3.org/2000/svg">
<g filter="url(#filter0_ddi_199_190)">
<path d="M148 73.5C148 110.779 117.779 141 80.5 141C43.2208 141 13 110.779 13 73.5C13 36.2208 43.2208 6 80.5 6C117.779 6 148 36.2208 148 73.5Z" fill="white"/>
</g>
<path d="M52.7285 62.2512V59.8855H60.6432C60.7309 60.3528 60.7601 60.8493 60.7601 61.3458C60.7601 63.1273 60.2636 65.3177 58.7157 66.8656C57.197 68.4427 55.2694 69.2897 52.6993 69.2897C47.9388 69.2897 43.9377 65.4054 43.9377 60.6449C43.9085 55.8843 47.9096 52 52.6701 52C55.2986 52 57.1678 53.0222 58.5989 54.3949L56.9341 56.0596C55.9119 55.125 54.5393 54.3657 52.6701 54.3657C49.1947 54.3657 46.4785 57.1694 46.4785 60.6449C46.4785 64.1203 49.1947 66.924 52.6701 66.924C54.919 66.924 56.204 66.0187 57.0218 65.2009C57.6935 64.5292 58.1316 63.5654 58.3068 62.2512H52.7285Z" fill="#467CBF"/>
<path d="M72.7932 63.7116C72.7932 66.9242 70.2816 69.2898 67.215 69.2898C64.1484 69.2898 61.6367 66.9242 61.6367 63.7116C61.6367 60.499 64.1484 58.1333 67.215 58.1333C70.2816 58.1333 72.7932 60.499 72.7932 63.7116ZM70.34 63.7116C70.34 61.6964 68.8797 60.3529 67.1858 60.3529C65.5211 60.3529 64.0608 61.7256 64.0608 63.7116C64.0608 65.6975 65.5211 67.0702 67.215 67.0702C68.9089 67.0702 70.34 65.6975 70.34 63.7116Z" fill="#E83626"/>
<path d="M84.9715 63.7116C84.9715 66.9242 82.4598 69.2898 79.3932 69.2898C76.3266 69.2898 73.8149 66.9242 73.8149 63.7116C73.8149 60.499 76.3266 58.1333 79.3932 58.1333C82.4598 58.1333 84.9715 60.499 84.9715 63.7116ZM82.5182 63.7116C82.5182 61.6964 81.0579 60.3529 79.364 60.3529C77.6701 60.3529 76.2098 61.7256 76.2098 63.7116C76.2098 65.6975 77.6701 67.0702 79.364 67.0702C81.0871 67.0994 82.5182 65.6975 82.5182 63.7116Z" fill="#F9BB00"/>
<path d="M96.6542 58.4838V68.4721C96.6542 72.5901 94.2301 74.2548 91.368 74.2548C88.6811 74.2548 87.0455 72.444 86.4322 70.9545L88.5642 70.0784C88.9439 70.9838 89.8785 72.0644 91.368 72.0644C93.2079 72.0644 94.3469 70.9253 94.3469 68.7933V68.0048H94.2593C93.7044 68.6765 92.653 69.2606 91.3388 69.2606C88.5642 69.2606 85.9941 66.8366 85.9941 63.7116C85.9941 60.5574 88.535 58.1333 91.3388 58.1333C92.653 58.1333 93.7336 58.7174 94.2593 59.3891H94.3469V58.4838H96.6542ZM94.493 63.7408C94.493 61.784 93.1787 60.3529 91.514 60.3529C89.8201 60.3529 88.4182 61.784 88.4182 63.7408C88.4182 65.6683 89.8201 67.0994 91.514 67.0994C93.1787 67.0994 94.493 65.6683 94.493 63.7408Z" fill="#467CBF"/>
<path d="M100.801 52.6431H98.3481V68.9398H100.801V52.6431Z" fill="#1EA74A"/>
<path d="M110.235 65.5514L112.133 66.8073C111.52 67.7126 110.06 69.2605 107.49 69.2605C104.335 69.2605 101.97 66.8073 101.97 63.6823C101.97 60.382 104.365 58.104 107.227 58.104C110.118 58.104 111.52 60.4112 111.987 61.6379L112.25 62.2804L104.803 65.347C105.358 66.4568 106.263 67.0409 107.49 67.0409C108.745 67.0993 109.592 66.486 110.235 65.5514ZM104.394 63.5654L109.359 61.4919C109.096 60.7909 108.249 60.3236 107.285 60.3236C106.059 60.2944 104.335 61.4042 104.394 63.5654Z" fill="#E83626"/>
<path d="M46.9392 74.6021H48.9836L44.9241 89.8474H42.9089L39.6378 79.8006H39.5502L36.25 89.8474H34.264L30 74.6021H32.0736L35.2862 86.6055H35.3738L38.6741 76.6464H40.514L43.8142 86.6055H43.9019L46.9392 74.6021Z" fill="#565C62"/>
<path d="M48.8081 84.6198C48.8081 83.0135 49.3046 81.67 50.3268 80.6186C51.349 79.5672 52.634 79.0415 54.1819 79.0415C55.7298 79.0415 57.0149 79.5672 58.0079 80.6186C59.0301 81.67 59.5558 83.0135 59.5558 84.6198C59.5558 86.2261 59.0301 87.5695 58.0079 88.6209C56.9857 89.6723 55.7298 90.198 54.1819 90.198C52.634 90.198 51.349 89.6723 50.3268 88.6209C49.3046 87.5695 48.8081 86.2261 48.8081 84.6198ZM50.7649 84.6198C50.7649 85.7296 51.0861 86.6642 51.7579 87.3359C52.4004 88.0368 53.2182 88.3873 54.1819 88.3873C55.1457 88.3873 55.9635 88.0368 56.606 87.3359C57.2485 86.635 57.599 85.7296 57.599 84.6198C57.599 83.51 57.2777 82.6046 56.606 81.9037C55.9343 81.2027 55.1165 80.8522 54.1819 80.823C53.2182 80.823 52.4296 81.1735 51.7579 81.9037C51.0861 82.6338 50.7649 83.51 50.7649 84.6198Z" fill="#565C62"/>
<path d="M62.9148 89.8473H60.958V79.4209H62.8272V81.1148H62.9148C63.1192 80.5599 63.5281 80.0926 64.1414 79.6837C64.7547 79.304 65.3681 79.0996 65.9522 79.0996C66.5071 79.0996 67.0036 79.1872 67.4124 79.3625L66.7991 81.2608C66.5655 81.1732 66.1858 81.1148 65.6601 81.1148C64.93 81.1148 64.2874 81.4068 63.7325 82.0202C63.1776 82.6043 62.9148 83.3052 62.9148 84.123V89.8473Z" fill="#565C62"/>
<path d="M77.5167 89.8474H75.151L71.88 84.9408L70.2737 86.5179V89.8474H68.3169V74.6021H70.2737V84.0062L74.8005 79.421H77.3122V79.4794L73.2526 83.539L77.5167 89.7597V89.8474Z" fill="#565C62"/>
<path d="M85.9866 86.9563C85.9866 87.8617 85.5777 88.621 84.7891 89.2635C84.0006 89.8769 82.9784 90.1981 81.781 90.1981C80.7296 90.1981 79.795 89.9353 79.0064 89.3804C78.2179 88.8547 77.6338 88.0953 77.3125 87.2192L79.0648 86.4598C79.3277 87.0731 79.7074 87.5696 80.1747 87.9201C80.6419 88.2706 81.1968 88.4458 81.781 88.4458C82.3943 88.4458 82.92 88.2998 83.3581 88.0369C83.7669 87.7741 84.0006 87.4528 84.0006 87.0731C84.0006 86.4014 83.4749 85.9049 82.4527 85.6128L80.6711 85.1748C78.6268 84.6491 77.6338 83.6853 77.6338 82.225C77.6338 81.2612 78.0134 80.5019 78.802 79.947C79.5905 79.3629 80.5543 79.0708 81.781 79.0708C82.7155 79.0708 83.5333 79.3044 84.2926 79.7425C85.052 80.1806 85.5485 80.7647 85.8697 81.5241L84.1174 82.2542C83.913 81.8161 83.5625 81.4365 83.1536 81.232C82.6863 80.9692 82.1606 80.8523 81.6641 80.8523C81.1676 80.8523 80.7004 80.9692 80.2915 81.232C79.8826 81.4949 79.6782 81.7869 79.6782 82.1666C79.6782 82.7507 80.2331 83.1888 81.3721 83.4516L82.9492 83.8605C84.9644 84.3278 85.9866 85.3792 85.9866 86.9563Z" fill="#565C62"/>
<path d="M92.7918 90.1981C92.0325 90.1981 91.3316 90.0229 90.689 89.7016C90.0465 89.3804 89.5792 88.9423 89.2287 88.3874H89.1411L89.2287 89.8477V94.4621H87.272V79.4213H89.1411V80.8815H89.2287C89.5792 80.3558 90.0465 79.9178 90.689 79.5673C91.3316 79.246 92.0325 79.0708 92.7918 79.0708C94.1645 79.0708 95.3327 79.5965 96.2965 80.6771C97.2895 81.7577 97.7568 83.1012 97.7568 84.6199C97.7568 86.1678 97.2603 87.482 96.2965 88.5626C95.3619 89.6432 94.1937 90.1981 92.7918 90.1981ZM92.4998 88.4166C93.4343 88.4166 94.2229 88.0661 94.8654 87.336C95.5079 86.635 95.8292 85.7297 95.8292 84.6199C95.8292 83.5393 95.5079 82.6339 94.8654 81.9037C94.2229 81.2028 93.4343 80.8231 92.4998 80.8231C91.536 80.8231 90.7474 81.1736 90.1049 81.9037C89.4916 82.6047 89.1703 83.51 89.1703 84.6199C89.1703 85.7297 89.4916 86.635 90.1049 87.336C90.7474 88.0661 91.536 88.4166 92.4998 88.4166Z" fill="#565C62"/>
<path d="M103.16 79.0708C104.62 79.0708 105.759 79.4505 106.606 80.239C107.453 81.0276 107.862 82.079 107.862 83.4224V89.8477H105.964V88.3874H105.876C105.058 89.5848 103.978 90.1689 102.634 90.1689C101.495 90.1689 100.531 89.8185 99.7429 89.1467C98.9544 88.475 98.5747 87.5988 98.5747 86.5766C98.5747 85.496 98.9836 84.6491 99.8013 84.0065C100.619 83.364 101.7 83.0428 103.072 83.0428C104.241 83.0428 105.204 83.2472 105.964 83.6853V83.2472C105.964 82.5755 105.701 81.9914 105.146 81.4949C104.62 81.0276 103.949 80.7647 103.248 80.7939C102.167 80.7939 101.291 81.2612 100.648 82.1666L98.9252 81.086C99.889 79.7425 101.291 79.0708 103.16 79.0708ZM100.619 86.6642C100.619 87.19 100.824 87.5988 101.262 87.9493C101.7 88.2998 102.196 88.475 102.78 88.475C103.598 88.475 104.328 88.1829 105 87.5696C105.642 86.9563 105.964 86.2262 105.964 85.4084C105.35 84.9119 104.503 84.6783 103.394 84.6783C102.605 84.6783 101.933 84.8827 101.408 85.2624C100.882 85.6128 100.619 86.0801 100.619 86.6642Z" fill="#565C62"/>
<path d="M114.492 90.198C112.944 90.198 111.659 89.6723 110.636 88.6209C109.614 87.5403 109.118 86.2261 109.118 84.6198C109.118 83.0135 109.614 81.67 110.636 80.6186C111.659 79.5672 112.944 79.0415 114.492 79.0415C115.572 79.0415 116.477 79.3044 117.295 79.8301C118.084 80.3558 118.697 81.0859 119.077 82.0497L117.295 82.809C116.74 81.4948 115.777 80.8522 114.375 80.8522C113.469 80.8522 112.71 81.2027 112.038 81.9329C111.396 82.663 111.074 83.5392 111.074 84.6198C111.074 85.7004 111.396 86.5765 112.038 87.3067C112.681 88.0368 113.469 88.3873 114.375 88.3873C115.806 88.3873 116.828 87.7448 117.412 86.4305L119.164 87.1899C118.785 88.1244 118.171 88.8546 117.354 89.4095C116.507 89.9352 115.572 90.198 114.492 90.198Z" fill="#565C62"/>
<path d="M125.035 90.1981C123.487 90.1981 122.231 89.6724 121.239 88.621C120.246 87.5696 119.749 86.2262 119.749 84.6199C119.749 83.0136 120.246 81.6993 121.209 80.6479C122.173 79.5965 123.4 79.0708 124.918 79.0708C126.466 79.0708 127.693 79.5673 128.628 80.5603C129.533 81.5533 130 82.9551 130 84.7659L129.971 84.9703H121.764C121.793 85.9925 122.144 86.8103 122.786 87.4528C123.429 88.0661 124.217 88.3874 125.123 88.3874C126.379 88.3874 127.342 87.7741 128.073 86.5182L129.825 87.3652C129.387 88.2121 128.715 88.9423 127.868 89.4388C127.05 89.9353 126.087 90.1981 125.035 90.1981ZM121.91 83.364H127.897C127.839 82.6339 127.547 82.0498 127.021 81.5533C126.496 81.086 125.765 80.8523 124.889 80.8523C124.159 80.8523 123.517 81.086 122.991 81.5241C122.436 81.9914 122.085 82.6047 121.91 83.364Z" fill="#565C62"/>
<defs>
<filter id="filter0_ddi_199_190" x="0" y="0" width="161" height="161" filterUnits="userSpaceOnUse" color-interpolation-filters="sRGB">
<feFlood flood-opacity="0" result="BackgroundImageFix"/>
<feColorMatrix in="SourceAlpha" type="matrix" values="0 0 0 0 0 0 0 0 0 0 0 0 0 0 0 0 0 0 127 0" result="hardAlpha"/>
<feOffset dy="7"/>
<feGaussianBlur stdDeviation="6.5"/>
<feComposite in2="hardAlpha" operator="out"/>
<feColorMatrix type="matrix" values="0 0 0 0 0 0 0 0 0 0 0 0 0 0 0 0 0 0 0.3 0"/>
<feBlend mode="normal" in2="BackgroundImageFix" result="effect1_dropShadow_199_190"/>
<feColorMatrix in="SourceAlpha" type="matrix" values="0 0 0 0 0 0 0 0 0 0 0 0 0 0 0 0 0 0 127 0" result="hardAlpha"/>
<feOffset dy="4"/>
<feGaussianBlur stdDeviation="2"/>
<feComposite in2="hardAlpha" operator="out"/>
<feColorMatrix type="matrix" values="0 0 0 0 0 0 0 0 0 0 0 0 0 0 0 0 0 0 0.25 0"/>
<feBlend mode="normal" in2="effect1_dropShadow_199_190" result="effect2_dropShadow_199_190"/>
<feBlend mode="normal" in="SourceGraphic" in2="effect2_dropShadow_199_190" result="shape"/>
<feColorMatrix in="SourceAlpha" type="matrix" values="0 0 0 0 0 0 0 0 0 0 0 0 0 0 0 0 0 0 127 0" result="hardAlpha"/>
<feOffset dy="-3"/>
<feComposite in2="hardAlpha" operator="arithmetic" k2="-1" k3="1"/>
<feColorMatrix type="matrix" values="0 0 0 0 0 0 0 0 0 0 0 0 0 0 0 0 0 0 0.2 0"/>
<feBlend mode="normal" in2="shape" result="effect3_innerShadow_199_190"/>
</filter>
</defs>
</svg>
