<svg width="161" height="161" viewBox="0 0 161 161" fill="none" xmlns="http://www.w3.org/2000/svg">
<g filter="url(#filter0_ddi_66_41)">
<path d="M148 73.5C148 110.779 117.779 141 80.5 141C43.2208 141 13 110.779 13 73.5C13 36.2208 43.2208 6 80.5 6C117.779 6 148 36.2208 148 73.5Z" fill="white"/>
</g>
<g clip-path="url(#clip0_66_41)">
<path d="M99.1583 55.3638L88.7131 58.785L79.6156 62.8024L77.0756 63.4763C76.4276 64.0984 75.7537 64.7204 75.0021 65.3425C74.1986 66.0423 73.4469 66.6643 72.8767 67.1309C72.2288 67.6492 71.2957 68.5823 70.8032 69.1784C70.0775 70.0856 69.5073 71.0446 69.274 71.7703C68.8334 73.0922 69.0408 74.4399 69.8961 75.684C70.9587 77.2651 73.11 78.872 75.5982 79.9606C76.8682 80.5308 79.0195 81.2306 80.6264 81.6453C83.296 82.3192 88.4798 83.0709 91.3308 83.1745C91.9011 83.2005 92.6786 83.2005 92.7045 83.1745C92.7564 83.1227 93.2229 82.2933 93.7154 81.2306C95.4778 77.6539 96.7219 74.2844 97.4217 71.4334C97.8364 69.6968 98.1475 67.39 98.3807 64.6427C98.4326 63.8651 98.4585 61.2992 98.4067 60.4438C98.3289 59.0183 98.1993 57.8779 98.0179 56.7375C97.992 56.5819 97.966 56.4264 97.9919 56.4264C98.0179 56.4005 98.1215 56.3746 99.4175 56.0117L99.1583 55.3638ZM96.7738 56.7634C96.8774 56.7634 97.1107 59.1997 97.1885 60.7289C97.2144 61.04 97.1885 61.2732 97.1885 61.2732C97.1366 61.2732 95.8666 60.5216 94.9335 59.9514C94.156 59.4589 92.6527 58.4481 92.4194 58.2667C92.3417 58.2148 92.3417 58.2148 92.9896 57.9816C94.0782 57.5928 96.6701 56.7634 96.7738 56.7634ZM91.4345 58.5259C91.5123 58.5259 91.6937 58.6295 92.1343 58.8887C93.7672 59.8995 95.9703 61.1436 96.9293 61.5583C97.2144 61.6879 97.2403 61.6361 96.5923 62.1026C95.1668 63.0875 93.3525 64.0465 91.1753 65.0055C90.7866 65.187 90.4755 65.3166 90.4496 65.3166C90.4237 65.3166 90.4755 65.1092 90.5533 64.8759C91.0717 62.9061 91.3827 60.9104 91.4086 59.3293C91.3568 58.5259 91.3568 58.5259 91.4345 58.5259ZM90.3459 58.9406C90.3978 58.9924 90.3718 60.7549 90.2941 61.2473C90.1645 62.3877 89.9312 63.4763 89.5684 64.6945C89.4906 64.9796 89.4129 65.2388 89.3869 65.2388C89.361 65.2906 88.2724 64.228 87.9096 63.8133C87.2875 63.1135 86.821 62.3877 86.4581 61.6879C86.2767 61.3251 85.9916 60.6253 86.0175 60.6253C86.1471 60.5216 90.32 58.9146 90.3459 58.9406ZM85.1881 60.9622C85.24 60.9881 85.2918 61.1177 85.3177 61.2473C85.5769 61.9471 86.1471 62.958 86.6396 63.58C87.1839 64.2798 87.8837 65.0574 88.4539 65.5498C88.6353 65.7053 88.8167 65.8608 88.8427 65.8868C88.8945 65.9386 88.8945 65.9386 87.6245 66.4051C86.1212 66.9753 84.5142 67.5456 82.6481 68.1417C82.2075 68.2972 81.7668 68.4268 81.3262 68.5823C81.2485 68.6082 81.2744 68.5564 81.4817 68.2454C82.4148 66.7939 83.8144 63.9688 84.592 61.9471C84.7216 61.6102 84.8512 61.2473 84.8771 61.1696C84.903 61.0659 84.9548 61.014 85.0585 60.9622C85.1104 60.9881 85.1622 60.9622 85.1881 60.9622ZM83.6071 61.6102C83.633 61.6361 83.2183 62.4655 82.8295 63.2431C82.0519 64.7463 81.2226 66.1978 80.108 67.9862C79.9266 68.2972 79.7452 68.5823 79.7193 68.6082C79.6674 68.6601 79.6674 68.6601 79.5378 68.4009C79.2787 67.8825 79.0454 67.1827 78.9417 66.5607C78.8121 65.9386 78.838 64.8759 78.9935 64.202C79.0972 63.7096 79.0972 63.7096 79.3305 63.6059C80.2895 63.1135 83.5552 61.5843 83.6071 61.6102ZM97.2144 62.1804V62.5173C97.2144 64.2798 97.033 66.6902 96.7479 68.4527C96.696 68.7637 96.6701 69.0229 96.6442 69.0229C96.6442 69.0229 96.4109 68.9711 96.1517 68.8933C94.9595 68.5305 93.6894 67.9862 92.5231 67.3382C91.7455 66.9235 90.631 66.2237 90.6829 66.1978C90.6829 66.1978 91.0198 66.0164 91.4086 65.809C92.9637 65.0055 94.4411 64.1243 95.737 63.269C96.2295 62.9579 96.9552 62.4137 97.1107 62.2841L97.2144 62.1804ZM77.6458 64.5131C77.6717 64.5131 77.6717 64.5649 77.6199 64.85C77.5939 65.0574 77.5421 65.4461 77.5421 65.7053C77.4903 66.8458 77.6717 67.7011 78.2419 68.8674C78.3974 69.1784 78.527 69.4635 78.527 69.4635C78.4752 69.5154 73.2396 71.0446 71.6067 71.4852C71.1143 71.6148 70.6996 71.7444 70.6477 71.7444C70.5959 71.7703 70.5959 71.7444 70.5959 71.6148C70.7773 70.4485 71.6586 68.9452 72.9026 67.6492C73.732 66.7939 74.38 66.3015 75.4945 65.6535C76.298 65.2388 77.5162 64.539 77.6458 64.5131C77.6199 64.5131 77.6199 64.5131 77.6458 64.5131ZM89.9572 66.7162C89.9572 66.7162 90.1645 66.8198 90.3719 66.9494C92.0566 67.9343 94.4152 68.8415 96.4109 69.308L96.5923 69.3599L96.3332 69.4895C95.2705 70.0856 91.8233 71.5111 88.2984 72.833C87.78 73.0144 87.2875 73.2218 87.1838 73.2477C87.0802 73.2995 87.0024 73.2995 87.0024 73.2995C87.0024 73.2995 87.132 73.0144 87.3134 72.6775C88.2984 70.8372 89.2833 68.5823 89.8016 67.0272C89.9053 66.8458 89.9572 66.7162 89.9572 66.7162ZM88.7131 67.1309C88.7131 67.1309 88.6612 67.3123 88.5835 67.4937C87.8837 69.1525 87.0024 70.9668 85.8361 73.0144C85.551 73.5328 85.2918 73.9475 85.2918 73.9475C85.2918 73.9475 85.0585 73.8179 84.7734 73.6365C83.0887 72.5997 81.6113 71.3556 80.6523 70.1115L80.5227 69.9301L81.2485 69.7227C83.8144 69.0229 86.0175 68.2713 88.1947 67.3382C88.428 67.2345 88.6871 67.1309 88.7131 67.1309ZM96.5146 69.8523C96.5146 70.0338 96.1258 71.6666 95.7889 72.833C95.5038 73.8179 95.2705 74.5954 94.8299 75.9691C94.6484 76.5653 94.467 77.0577 94.467 77.0577C94.467 77.0577 94.4152 77.0577 94.3633 77.0318C92.0306 76.6171 89.9053 76.021 87.9355 75.2175C87.3912 74.9842 86.5877 74.6473 86.5359 74.5954C86.51 74.5695 87.0024 74.3622 87.5985 74.103C91.2012 72.522 94.9076 70.7595 96.2036 69.9819C96.3591 69.9042 96.4887 69.8523 96.5146 69.8523ZM78.5011 70.4744C78.527 70.5003 77.5162 71.9258 76.1166 73.8956C75.6241 74.5954 75.0539 75.3989 74.8466 75.684C74.6392 75.9951 74.3023 76.4616 74.1208 76.7467L73.7839 77.2651L73.421 76.9541C73.0063 76.6171 72.2806 75.8655 71.9437 75.4508C71.2698 74.5954 70.8032 73.7142 70.6218 72.9107C70.544 72.522 70.544 72.3405 70.6218 72.3146C70.7514 72.2887 72.8508 71.7962 74.8206 71.3297C75.9092 71.0705 77.1792 70.7854 77.6458 70.6558C78.1123 70.5521 78.4752 70.4744 78.5011 70.4744ZM79.5119 70.8632L79.7711 71.1483C80.9115 72.4183 82.0779 73.3513 83.4775 74.1807C83.7367 74.3103 83.9181 74.4399 83.8922 74.4659C83.8403 74.5177 79.0195 76.2283 76.7645 76.98C75.5204 77.4206 74.4837 77.7834 74.4578 77.7834L74.3023 77.6798L74.1727 77.5761L74.4059 77.2391C75.1576 76.1765 76.0907 74.9842 78.1123 72.5479L79.5119 70.8632ZM85.8102 75.373C85.8102 75.373 86.173 75.5026 86.5877 75.6581C87.6245 76.0469 88.4279 76.2802 89.5165 76.5653C90.8643 76.9022 92.8082 77.2392 93.9486 77.3428C94.1301 77.3687 94.2078 77.3687 94.1819 77.3947C94.1301 77.4206 92.9637 77.8094 92.1084 78.0945C90.7606 78.5092 86.6136 79.7533 83.2183 80.7123C82.5962 80.8937 82.0519 81.0492 82.026 81.0492C81.9483 81.0751 81.6891 80.9974 81.6891 80.9714C81.6891 80.9455 81.8705 80.7123 82.1038 80.4531C83.2442 79.1053 84.3587 77.5761 85.3177 76.1506C85.5769 75.684 85.8102 75.373 85.8102 75.373ZM84.4106 75.3989C84.4106 75.3989 83.8663 76.3061 82.8813 77.8612C82.4666 78.5092 82.0001 79.2608 81.8187 79.52C81.6632 79.7792 81.4299 80.168 81.3003 80.4012L81.067 80.8159L80.9374 80.79C80.6523 80.7123 78.6566 80.0125 78.1382 79.8051C77.4903 79.5459 76.8164 79.2349 76.298 78.9498C75.676 78.6128 74.8725 78.0945 74.9502 78.0945C74.9761 78.0945 76.0388 77.7834 77.3607 77.4465C80.8079 76.5134 82.7258 75.9691 83.9959 75.5544C84.2032 75.4508 84.4106 75.3989 84.4106 75.3989ZM94.2337 77.7057C94.2856 77.7834 92.9896 81.3343 92.5231 82.4488C92.4194 82.708 92.3935 82.7598 92.3158 82.7598C92.1862 82.7598 90.32 82.5006 89.2055 82.3192C87.2357 82.0082 83.944 81.438 83.1146 81.2565L82.9332 81.2047L84.0995 80.9455C86.6396 80.3753 87.8318 80.0643 89.0759 79.7014C90.631 79.2349 92.1602 78.6388 93.7154 77.913C93.9746 77.8094 94.1819 77.7057 94.2337 77.7057Z" fill="url(#paint0_linear_66_41)"/>
<path d="M88.3759 31.0259C88.1945 31 85.3953 32.0108 83.5809 32.7365C81.1446 33.7214 79.2525 34.6804 78.0862 35.5098C77.6456 35.8208 77.1013 36.3651 77.0235 36.5725C76.9976 36.6502 76.9717 36.7539 76.9717 36.8317L78.0343 37.8425L80.5485 38.646L86.5357 39.7086L93.3782 40.875L93.456 40.2789H93.4041L92.497 40.1493L92.3156 39.8382C91.3825 38.2054 90.3457 36.1578 89.7496 34.7841C89.2831 33.7214 88.8424 32.4773 88.6092 31.5961C88.4796 31.0518 88.4537 31.0259 88.3759 31.0259ZM88.2463 31.4147C88.2722 31.4147 88.2982 31.6479 88.3241 31.9071C88.4537 33.0216 88.7129 34.0843 89.1016 35.2247C89.3867 36.1059 89.3867 36.0541 89.0498 35.9504C88.2463 35.7172 84.6436 35.0951 82.0258 34.7323C81.6111 34.6804 81.2483 34.6286 81.2483 34.6027C81.2223 34.5767 83.1403 33.5659 83.9697 33.1771C85.0583 32.6847 88.039 31.4665 88.2463 31.4147ZM80.6262 34.9655L80.9372 35.0692C82.622 35.6394 86.8208 36.4429 89.1535 36.6243C89.4127 36.6502 89.6459 36.6762 89.6459 36.6762C89.6459 36.6762 89.4386 36.8057 89.1535 36.9353C88.039 37.5056 86.7949 38.1794 85.9396 38.7237C85.6804 38.8792 85.4471 39.0088 85.4212 39.0088C85.3953 39.0088 85.2138 38.9829 85.0583 38.957L84.7473 38.9052L83.9697 38.1276C82.5701 36.7798 81.4815 35.7431 81.0668 35.3284L80.6262 34.9655ZM80.3152 35.1988L81.4297 36.5984C82.0258 37.376 82.6479 38.1017 82.7775 38.2831C82.9071 38.4386 83.0107 38.5941 83.0107 38.5941C82.9848 38.6201 81.4038 38.309 80.5744 38.1276C79.7191 37.9203 79.3562 37.8425 78.8378 37.6611L78.3972 37.5315V37.4278C78.3972 36.9094 79.0711 36.1059 80.2115 35.3025L80.3152 35.1988ZM89.7755 37.0909C89.8014 37.0909 89.8533 37.1686 89.931 37.376C90.1902 37.9721 91.0455 39.5531 91.2529 39.8642C91.3047 39.9678 91.4343 39.9678 90.3198 39.7864C87.6502 39.3458 86.7949 39.2162 86.7949 39.1903C86.7949 39.1903 86.8726 39.1384 86.9763 39.0607C87.8057 38.5941 88.6351 38.0239 89.3867 37.4019C89.5682 37.2464 89.7237 37.1168 89.7755 37.0909Z" fill="url(#paint1_linear_66_41)"/>
<path d="M77.0757 36.4429C77.0757 36.4429 76.8942 36.728 77.0757 37.1427C77.1793 37.4019 77.4904 37.7129 77.8273 38.0239C77.8273 38.0239 81.3522 41.4452 81.7669 41.9376C83.7108 44.1926 84.5662 46.3957 84.6439 49.4281C84.6958 51.398 84.3329 53.1086 83.3998 55.1043C81.7669 58.6811 78.2938 62.6467 72.9546 67.0269L73.7322 66.7677C74.2246 66.379 74.9244 65.9902 76.5314 65.109C80.2637 63.0614 84.4366 61.1952 89.5685 59.2772C96.9553 56.5039 109.111 53.2382 116.031 52.1755L116.757 52.0718L116.654 51.8904C116.031 50.9055 115.591 50.3094 115.072 49.6614C113.569 47.7693 111.729 46.2661 109.474 44.996C106.39 43.2595 102.372 41.9117 97.2922 40.9009C96.3333 40.7195 94.2338 40.3566 92.5232 40.0974C88.8946 39.5272 86.5619 39.1384 83.996 38.6978C83.0629 38.5423 81.6892 38.309 80.782 38.1017C80.3155 37.998 79.4083 37.7906 78.6826 37.5315C78.0606 37.35 77.2571 37.1168 77.0757 36.4429ZM79.1232 38.4386C79.1232 38.4386 79.2528 38.4904 79.4343 38.5423C79.7453 38.646 80.1341 38.7756 80.5747 38.8792C80.9116 38.9829 81.2745 39.0607 81.6114 39.1643C82.078 39.2939 82.4927 39.3976 82.4927 39.3976C82.5445 39.4494 83.348 42.0154 83.6072 42.9744C83.7108 43.3372 83.7886 43.6742 83.7886 43.6742C83.7886 43.6742 83.6849 43.5446 83.5813 43.3632C82.6482 41.7303 81.1967 40.0974 79.512 38.7496C79.2788 38.5682 79.1232 38.4386 79.1232 38.4386ZM83.011 39.5013C83.0629 39.5013 83.2184 39.5272 83.4257 39.579C84.7735 39.8901 87.184 40.3307 88.7132 40.5899C88.9723 40.6417 89.1797 40.6676 89.1797 40.6935C89.1797 40.7195 89.076 40.7713 88.9723 40.8231C88.7132 40.9527 87.6505 41.5748 87.3135 41.808C86.4323 42.4042 85.6548 43.0262 85.0845 43.5964L84.6698 44.0111C84.6698 44.0111 84.618 43.8815 84.5921 43.7001C84.307 42.6115 83.7109 40.9786 83.1666 39.8382C83.0629 39.6827 82.9851 39.5013 83.011 39.5013C82.9851 39.5013 82.9851 39.5013 83.011 39.5013ZM89.8277 40.7972C89.8795 40.8231 89.9573 41.0823 90.1128 41.6784C90.3979 42.8189 90.5275 44.1148 90.5016 45.3071C90.4756 45.644 90.4756 45.955 90.4497 45.981L90.4238 46.0587L90.0091 45.9291C89.1538 45.6699 87.7801 45.2552 86.6137 44.9183C85.9399 44.7369 85.3956 44.5813 85.3956 44.5554C85.3956 44.5036 86.3805 43.5187 86.7952 43.1558C87.5987 42.456 89.7758 40.7713 89.8277 40.7972ZM90.372 40.875C90.3979 40.849 93.6377 41.4193 95.1151 41.7044C96.2037 41.9117 97.8106 42.2487 97.9143 42.3005C97.9661 42.3264 97.7847 42.4042 97.2663 42.6374C95.1928 43.5705 93.6377 44.4258 92.0826 45.4367C91.6679 45.6958 91.3309 45.9291 91.3309 45.9291C91.3309 45.9291 91.305 45.6958 91.305 45.4367C91.305 43.9334 90.994 42.4301 90.4497 41.1342C90.4238 41.0046 90.372 40.9009 90.372 40.875ZM98.7696 42.5338C98.7955 42.5597 98.6919 43.2076 98.5882 43.5705C98.3031 44.7369 97.5255 46.4993 96.5924 48.1322C96.4369 48.4173 96.2814 48.6506 96.2555 48.6765C96.2296 48.6765 96.0222 48.5728 95.789 48.4173C94.8818 47.873 93.8191 47.3806 92.7046 46.914C92.3936 46.7844 92.1085 46.6808 92.1085 46.6548C92.0567 46.603 94.5967 44.9183 95.9445 44.1148C97.0071 43.4668 98.7437 42.5078 98.7696 42.5338ZM99.3657 42.6374C99.4435 42.6374 100.869 43.0262 101.621 43.2595C103.487 43.8038 105.612 44.5813 106.986 45.2293L107.556 45.4885L107.141 45.5922C103.746 46.3697 100.843 47.2769 98.0439 48.4173C97.8106 48.521 97.6033 48.5987 97.6033 48.5987C97.5774 48.5987 97.6551 48.4173 97.7588 48.184C98.6141 46.3956 99.1584 44.5295 99.288 42.9225C99.3398 42.767 99.3657 42.6374 99.3657 42.6374ZM85.0586 45.9291C85.0845 45.9032 86.1731 46.1624 86.7693 46.3438C87.6764 46.603 89.5685 47.225 89.5685 47.2769C89.5685 47.2769 89.3611 47.4583 89.1019 47.6916C88.0652 48.5469 87.0803 49.4541 85.888 50.6204C85.5252 50.9573 85.2401 51.2424 85.2141 51.2424C85.1882 51.2424 85.1882 51.1906 85.1882 51.1388C85.3696 49.8169 85.3178 48.1063 85.0845 46.3697C85.0845 46.1105 85.0586 45.9291 85.0586 45.9291ZM108.126 45.955C108.152 45.981 107.608 46.7844 107.297 47.251C106.83 47.9249 106.131 48.832 104.549 50.8018C103.72 51.8386 102.787 53.0308 102.476 53.4196C102.165 53.8084 101.906 54.1453 101.88 54.1453C101.88 54.1453 101.776 54.0157 101.647 53.8343C100.765 52.5125 99.7027 51.3461 98.4586 50.3094C98.2253 50.102 97.9661 49.8947 97.8625 49.8428C97.7847 49.791 97.7069 49.7132 97.7069 49.7132C97.7069 49.6873 99.0547 49.1171 100.066 48.7024C101.854 47.9767 104.29 47.0955 106.105 46.5512C107.09 46.2142 108.126 45.9291 108.126 45.955ZM108.748 46.1105C108.774 46.1105 108.982 46.1883 109.189 46.3438C111.107 47.4324 112.999 48.8579 114.476 50.3094C114.891 50.7241 115.928 51.7867 115.902 51.8127C115.902 51.8127 115.539 51.8386 115.124 51.8645C111.807 52.1237 107.556 52.8235 103.461 53.8084C103.176 53.8602 102.943 53.938 102.917 53.938C102.891 53.938 103.202 53.627 103.59 53.2641C106.001 50.9573 107.09 49.48 108.385 46.8881C108.567 46.4475 108.722 46.1365 108.748 46.1105C108.722 46.1105 108.722 46.1105 108.748 46.1105ZM91.1495 47.8989C91.2532 47.9249 92.2899 48.4173 93.0675 48.7802C93.7673 49.143 94.8559 49.7132 94.9077 49.7392C94.9077 49.7392 94.5449 49.9465 94.0783 50.1798C92.601 50.9314 91.3309 51.6312 89.9832 52.4347C89.5944 52.668 89.2834 52.8494 89.2834 52.8494C89.2575 52.8494 89.2575 52.8235 89.4648 52.4347C90.1646 51.1388 90.7348 49.5837 91.0718 48.0804C91.0977 47.9767 91.1236 47.8989 91.1495 47.8989ZM90.1387 48.1063C90.1646 48.1322 89.9054 49.0912 89.724 49.6355C89.413 50.6463 88.8428 51.8904 88.3244 52.8494C88.1948 53.0827 88.0134 53.3937 87.9097 53.5751L87.7023 53.8862L87.2617 53.4715C86.7433 52.979 86.3286 52.668 85.7843 52.3829C85.577 52.2792 85.3956 52.1755 85.3956 52.1496C85.3956 52.0978 86.7433 50.8537 87.7801 49.9724C88.5317 49.3245 90.1128 48.0804 90.1387 48.1063ZM96.411 50.6722L96.7998 50.9314C97.681 51.5016 98.7178 52.2792 99.5213 52.9531C99.9619 53.3159 100.843 54.0935 101.025 54.3009L101.128 54.4045L100.48 54.586C96.8516 55.5968 94.0783 56.478 90.8126 57.6703C90.4497 57.7999 90.1387 57.9036 90.1128 57.9036C90.0609 57.9036 90.035 57.9554 90.8385 57.2037C92.912 55.2858 94.7781 53.1604 96.1518 51.1129L96.411 50.6722ZM94.7522 51.0869C94.7781 51.1129 93.6895 52.6161 93.0416 53.4974C92.264 54.5341 90.8903 56.2448 89.9573 57.3593C89.5685 57.8258 89.2315 58.2146 89.2056 58.2146C89.1797 58.2146 89.1797 58.1109 89.1797 57.9295C89.1797 56.9705 88.9464 55.9597 88.5058 55.0784C88.3244 54.7156 88.2985 54.6378 88.3244 54.586C88.4799 54.4564 90.7607 53.1345 92.2381 52.357C93.1971 51.8386 94.7263 51.061 94.7522 51.0869ZM84.7735 53.5233C84.7994 53.5233 84.9809 53.627 85.1882 53.7306C85.6807 54.0157 86.1472 54.3268 86.536 54.6378C86.5619 54.6637 86.3546 54.8192 86.0695 55.0266C85.3178 55.5709 84.1774 56.4262 83.5294 56.9446C82.8296 57.4889 82.8037 57.5148 82.8815 57.3852C83.3998 56.5817 83.659 56.1411 83.9441 55.5709C84.1774 55.0525 84.4366 54.4564 84.618 53.9121C84.6698 53.7047 84.7476 53.5233 84.7735 53.5233ZM87.4431 55.6227C87.495 55.6227 87.5209 55.6745 87.7542 56.0115C88.1948 56.6854 88.5576 57.5925 88.6354 58.3183L88.6613 58.4738L87.5727 58.8885C85.6288 59.6401 83.8404 60.3917 82.6482 60.936C82.3112 61.0916 81.7151 61.3767 81.3263 61.5581C80.9375 61.7654 80.6265 61.895 80.6265 61.895C80.6265 61.895 80.8598 61.7136 81.1708 61.4803C83.5294 59.7697 85.577 57.8776 87.1062 56.0115C87.2617 55.8041 87.4172 55.6227 87.4431 55.6227ZM86.225 55.9078C86.2509 55.9337 85.3437 56.9705 84.7476 57.5925C83.2184 59.1476 81.7151 60.3658 79.849 61.5581C79.6157 61.7136 79.4083 61.8432 79.3824 61.8691C79.3306 61.895 79.4083 61.8173 80.2118 60.936C80.7302 60.3658 81.119 59.8993 81.5855 59.3291C81.8965 58.9403 81.9484 58.8885 82.3631 58.5774C83.5035 57.6962 86.1731 55.8819 86.225 55.9078Z" fill="url(#paint2_radial_66_41)"/>
<path d="M52.0122 88.6173C51.8567 88.6173 51.7271 88.6432 51.5716 88.6432C48.6169 88.7987 46.6471 90.0947 45.4807 92.6347C44.4958 94.9156 44.5995 97.9221 45.4807 100.203C46.5175 102.458 48.2022 103.65 51.0014 104.091C51.5975 104.194 51.9863 104.505 53.1527 105.853L54.5782 107.512H57.1441L55.4335 105.801C54.5004 104.868 53.7229 104.039 53.7229 103.961C53.7229 103.883 54.0857 103.728 54.5263 103.598C55.9778 103.158 57.1701 102.043 57.9994 100.333C58.6733 98.9589 58.777 98.5442 58.8807 96.8335C59.1399 91.7535 56.4702 88.5914 52.0122 88.6173ZM54.2672 101.888C53.0231 102.484 51.2088 102.613 50.0165 102.173C48.7983 101.732 47.6061 100.462 47.0618 99.0107C46.4656 97.4297 46.5434 94.5268 47.2432 93.2308C48.3318 91.1573 49.7832 90.1983 51.8826 90.1983C54.9929 90.1983 56.7813 92.1163 57.0145 95.6931C57.196 98.6997 56.1851 100.955 54.2672 101.888ZM98.614 92.9457C97.5255 92.9457 96.722 93.3864 96.1518 94.2417L95.7112 94.9156V93.1531H93.845V103.754H95.7112V100.358C95.7112 97.2482 95.7371 96.8854 96.1777 96.056C96.7738 94.8896 97.8106 94.3194 98.7955 94.5786L99.4694 94.76V92.9198L98.614 92.9457ZM87.6764 92.8421C87.3135 92.8421 86.9247 92.8939 86.5359 92.9717C84.0477 93.6196 82.6481 96.0041 82.7259 98.4664C82.7259 100.514 83.1147 101.551 84.1255 102.639C86.1472 104.298 87.9874 104.428 90.4756 103.546C90.8903 103.365 91.3568 103.158 91.3568 103.158V101.499L90.4756 101.965C88.4798 102.847 86.9506 102.847 85.7325 101.81C84.9549 101.032 84.6179 100.073 84.4624 99.0107H91.9789V97.5852C91.9789 94.6564 90.2164 92.8161 87.6764 92.8421ZM84.6439 97.5074C84.6439 97.5074 84.929 95.6931 85.9398 94.9674C86.4323 94.6305 87.0025 94.449 87.5727 94.449C88.1429 94.449 88.6872 94.6304 89.1537 94.9933C90.0868 95.719 90.2682 97.5074 90.2682 97.5074H84.6439ZM39.7008 95.5894C37.6792 94.3713 36.772 93.49 36.9016 92.4533C37.2127 89.5763 40.7635 89.9651 42.7333 91.0537L42.7593 89.1098C42.7593 89.1098 41.6707 88.6432 40.1155 88.6173C37.731 88.5914 36.1759 89.369 35.4502 90.9759C34.3875 93.3345 35.3206 95.1229 38.7419 97.0927C40.6598 98.2072 41.5152 99.1662 41.5152 100.229C41.5152 102.406 38.8974 103.158 36.1759 101.81C35.6057 101.525 35.1392 101.292 35.1132 101.292C35.0096 101.914 35.0614 103.391 35.0614 103.391C35.0614 103.391 35.8908 103.728 37.1349 103.987C40.2451 104.609 43.0444 103.158 43.3295 100.799C43.5368 98.5701 42.7333 97.4038 39.7008 95.5894ZM115.124 92.8421C114.761 92.8421 114.373 92.8939 113.984 92.9717C111.496 93.6196 110.096 96.0041 110.174 98.4664C110.174 100.514 110.563 101.551 111.573 102.613C113.595 104.272 115.435 104.428 117.949 103.521C118.364 103.339 118.831 103.132 118.831 103.132V101.473L117.949 101.94C115.928 102.821 114.424 102.821 113.206 101.784C112.429 101.006 112.092 100.073 111.936 98.9848H119.427V97.5593C119.427 94.6305 117.664 92.7902 115.124 92.8421ZM112.066 97.4815C112.066 97.4815 112.351 95.6672 113.362 94.9415C113.854 94.5786 114.424 94.4231 114.969 94.4231C115.513 94.4231 116.083 94.6045 116.55 94.9674C117.483 95.6931 117.664 97.4815 117.664 97.4815H112.066ZM77.905 95.6154C75.8834 94.3972 75.0021 93.5159 75.1058 92.4792C75.4168 89.6022 78.9677 89.991 80.9375 91.0796L80.9634 89.1357C80.9634 89.1357 79.8748 88.6691 78.3197 88.6432C75.9352 88.6173 74.3801 89.3949 73.6543 91.0018C72.5917 93.3604 73.5507 95.1488 76.946 97.1186C78.864 98.2331 79.6934 99.1921 79.6934 100.229C79.6934 102.406 77.0756 103.184 74.3541 101.81C73.8099 101.525 73.3174 101.292 73.2915 101.292C73.1878 101.914 73.2396 103.391 73.2396 103.391C73.2396 103.391 74.069 103.728 75.3131 103.987C78.4234 104.609 81.2226 103.158 81.5077 100.799C81.741 98.596 80.9375 97.4297 77.905 95.6154ZM126.062 92.9198C124.973 92.9198 124.144 93.3604 123.6 94.2157L123.159 94.8896V93.1272H121.293V103.728H123.159V100.358C123.159 97.2482 123.185 96.8854 123.626 96.056C124.222 94.8896 125.258 94.3194 126.243 94.6045L126.917 94.786V92.9457L126.062 92.9198ZM63.0795 95.5635V88.7987H61.2134V103.754H69.1186V101.991H63.1054L63.0795 95.5635ZM106.545 97.6629L104.99 101.68L103.513 97.637L102.009 93.1531H100.091C101.336 96.678 102.683 100.281 104.057 103.754C104.653 103.78 105.249 103.754 105.845 103.754L107.945 98.4923L110.07 93.1272H108.23C108.204 93.1531 107.4 95.2784 106.545 97.6629ZM67.4339 84.7295C67.7449 84.7295 67.9781 84.6258 68.1855 84.4185C68.3928 84.2111 68.4965 83.9779 68.4965 83.6668C68.4965 83.3558 68.3928 83.1225 68.1855 82.9152C67.9781 82.7338 67.7449 82.6301 67.4339 82.6301C67.1228 82.6301 66.8636 82.7338 66.6822 82.9411C66.4749 83.1485 66.3712 83.4077 66.3712 83.6928C66.3712 84.0038 66.4749 84.263 66.6822 84.4444C66.8636 84.6258 67.1228 84.7295 67.4339 84.7295ZM66.76 82.993C66.9414 82.8115 67.1488 82.7338 67.4339 82.7338C67.693 82.7338 67.9263 82.8115 68.1077 82.993C68.2892 83.1744 68.3928 83.3817 68.3928 83.6668C68.3928 83.926 68.2892 84.1593 68.1077 84.3407C67.9263 84.5222 67.693 84.5999 67.4339 84.5999C67.1747 84.5999 66.9414 84.5222 66.76 84.3407C66.5785 84.1593 66.4749 83.926 66.4749 83.6668C66.5008 83.4077 66.5785 83.1744 66.76 82.993ZM67.2006 83.7705H67.3302C67.4079 83.7705 67.5116 83.8483 67.5634 84.0038L67.719 84.3407H67.9522L67.7708 83.9779C67.693 83.8223 67.6153 83.7446 67.5375 83.7187C67.6412 83.6928 67.719 83.6668 67.7967 83.5891C67.8486 83.5372 67.8745 83.4336 67.8745 83.3558C67.8745 83.2521 67.8486 83.1744 67.7708 83.0966C67.693 83.0189 67.5634 82.993 67.382 82.993H66.9932V84.3407H67.1747L67.2006 83.7705ZM67.2006 83.1485H67.382C67.5116 83.1485 67.5894 83.1744 67.6412 83.2003C67.693 83.2262 67.693 83.2781 67.693 83.3817C67.693 83.5372 67.5894 83.615 67.4079 83.615H67.2006V83.1485ZM36.1759 83.6409C36.1759 83.1744 36.15 82.8115 36.15 82.6042C36.2018 82.8374 36.2537 83.0189 36.3055 83.1485L38.1198 87.1659H38.4308L40.2451 83.0966C40.297 82.993 40.3488 82.8115 40.4007 82.5783H40.4266C40.4007 82.993 40.3747 83.3299 40.3747 83.615V87.1659H40.9968V81.8785H40.2192L38.5345 85.5848C38.4827 85.7403 38.379 85.9477 38.2753 86.2328H38.2494C38.2235 86.0773 38.1198 85.8699 38.0161 85.6107L36.3833 81.9044H35.5539V87.1918H36.15L36.1759 83.6409ZM42.3186 83.6668H42.8629V86.9585H42.3186V83.6668ZM42.5778 82.4487C42.6815 82.4487 42.7852 82.4227 42.8629 82.345C42.9407 82.2672 42.9925 82.1895 42.9925 82.0599C42.9925 81.9562 42.9666 81.8525 42.8629 81.7748C42.7852 81.697 42.6815 81.6711 42.5778 81.6711C42.4741 81.6711 42.3705 81.697 42.2927 81.7748C42.215 81.8525 42.1631 81.9562 42.1631 82.0599C42.1631 82.1895 42.189 82.2672 42.2927 82.345C42.3705 82.4227 42.4741 82.4487 42.5778 82.4487ZM46.6471 87.0104V86.4401C46.362 86.6475 46.0509 86.7771 45.714 86.7771C45.3252 86.7771 45.0142 86.6475 44.7809 86.3883C44.5476 86.1291 44.4181 85.7922 44.4181 85.3516C44.4181 84.885 44.5476 84.5222 44.7809 84.263C45.0142 84.0038 45.3511 83.8742 45.714 83.8742C46.025 83.8742 46.336 83.9779 46.6211 84.1593V83.5113C46.362 83.3817 46.0768 83.3299 45.7399 83.3299C45.1438 83.3299 44.6513 83.5113 44.3144 83.9001C43.9774 84.263 43.796 84.7813 43.796 85.4034C43.796 85.9477 43.9515 86.4142 44.2885 86.7512C44.6254 87.114 45.066 87.2955 45.5844 87.2955C46.025 87.2695 46.362 87.1918 46.6471 87.0104ZM48.1763 85.2738C48.1763 84.8332 48.2799 84.4962 48.4614 84.237C48.6428 84.0297 48.8242 83.9001 49.0834 83.9001C49.2908 83.9001 49.4463 83.926 49.55 84.0297V83.4077C49.4722 83.3817 49.3426 83.3558 49.1871 83.3558C48.9797 83.3558 48.7724 83.4336 48.6169 83.5632C48.4355 83.7187 48.2799 83.926 48.2022 84.2111H48.1763V83.4336H47.5801V87.2177H48.1763V85.2738ZM51.6494 87.2695C52.2196 87.2695 52.6861 87.0881 53.0231 86.7252C53.36 86.3624 53.5414 85.8699 53.5414 85.2738C53.5414 84.6517 53.3859 84.1852 53.0749 83.8224C52.7639 83.4595 52.3233 83.304 51.753 83.304C51.1828 83.304 50.7163 83.4854 50.3794 83.7964C50.0165 84.1593 49.8351 84.6777 49.8351 85.3256C49.8351 85.8958 49.9906 86.3624 50.3275 86.7252C50.6385 87.0881 51.0792 87.2695 51.6494 87.2695ZM50.7941 84.2111C51.0273 83.9779 51.3383 83.8483 51.7012 83.8483C52.09 83.8483 52.3751 83.9779 52.6084 84.2111C52.8157 84.4703 52.9453 84.8332 52.9453 85.2997C52.9453 85.7663 52.8416 86.1291 52.6343 86.3624C52.4269 86.6216 52.1159 86.7512 51.7271 86.7512C51.3383 86.7512 51.0273 86.6216 50.7941 86.3624C50.5608 86.1032 50.4571 85.7663 50.4571 85.2997C50.4312 84.8332 50.5349 84.4703 50.7941 84.2111ZM56.1592 86.9585C56.3925 86.7512 56.5221 86.492 56.5221 86.1809C56.5221 85.8958 56.4184 85.6626 56.237 85.4811C56.0815 85.3256 55.8741 85.196 55.5372 85.0664C55.2521 84.9369 55.0706 84.8332 54.967 84.7554C54.8633 84.6517 54.8114 84.5481 54.8114 84.3666C54.8114 84.2111 54.8633 84.0815 54.9929 84.0038C55.1225 83.9001 55.278 83.8483 55.4853 83.8483C55.8223 83.8483 56.0815 83.926 56.3407 84.1075V83.5113C56.1074 83.3817 55.8223 83.3299 55.5372 83.3299C55.1484 83.3299 54.8114 83.4336 54.5782 83.6409C54.319 83.8483 54.2153 84.1075 54.2153 84.4185C54.2153 84.7036 54.2931 84.9369 54.4486 85.0924C54.5782 85.2479 54.8115 85.3775 55.1225 85.5071C55.4335 85.6367 55.6408 85.7663 55.7445 85.8699C55.8482 85.9736 55.9 86.0773 55.9 86.2328C55.9 86.5957 55.6668 86.7771 55.1743 86.7771C54.8115 86.7771 54.4745 86.6475 54.1894 86.4142V87.0622C54.4486 87.2177 54.7596 87.2955 55.1225 87.2955C55.5631 87.2695 55.926 87.1659 56.1592 86.9585ZM59.0362 83.3299C58.466 83.3299 57.9994 83.5113 57.6625 83.8224C57.2996 84.1852 57.1182 84.7036 57.1182 85.3516C57.1182 85.9218 57.2737 86.3883 57.6107 86.7512C57.9476 87.114 58.3882 87.2955 58.9584 87.2955C59.5287 87.2955 59.9952 87.114 60.3321 86.7512C60.6691 86.3883 60.8505 85.8958 60.8505 85.2997C60.8505 84.6777 60.695 84.2111 60.384 83.8483C60.047 83.4854 59.6064 83.3299 59.0362 83.3299ZM60.2285 85.2997C60.2285 85.7663 60.1248 86.1291 59.9174 86.3624C59.7101 86.6216 59.3991 86.7512 59.0103 86.7512C58.6215 86.7512 58.3105 86.6216 58.0772 86.3624C57.8439 86.1032 57.7403 85.7663 57.7403 85.2997C57.7403 84.8073 57.8699 84.4444 58.1031 84.1852C58.3364 83.9519 58.6474 83.8224 59.0103 83.8224C59.3731 83.8224 59.6842 83.9519 59.8915 84.1852C60.1248 84.4444 60.2285 84.8073 60.2285 85.2997ZM61.8613 87.1918H62.4575V83.926H63.3387V83.4077H62.4575V82.8374C62.4575 82.3191 62.6648 82.034 63.0795 82.034C63.235 82.034 63.3646 82.0599 63.4683 82.1376V81.5933C63.3646 81.5415 63.2091 81.5415 63.0277 81.5415C62.6907 81.5415 62.4315 81.6452 62.2242 81.8525C61.965 82.0858 61.8354 82.3968 61.8354 82.8374V83.4595H61.1875V83.9779H61.8354L61.8613 87.1918ZM64.3495 86.155C64.3495 86.8808 64.6865 87.2695 65.3344 87.2695C65.5677 87.2695 65.7491 87.2436 65.9047 87.1399V86.6216C65.801 86.6993 65.6714 86.7512 65.5159 86.7512C65.3085 86.7512 65.1789 86.6993 65.0753 86.5957C64.9975 86.492 64.9457 86.3105 64.9457 86.0514V83.926H65.9047V83.4077H64.9457V82.2931C64.7383 82.3709 64.531 82.4227 64.3495 82.4746V83.3817H63.7016V83.9001H64.3495V86.155ZM129.276 93.1272C129.069 92.9457 128.835 92.8421 128.524 92.8421C128.213 92.8421 127.954 92.9457 127.773 93.1531C127.565 93.3604 127.462 93.6196 127.462 93.9047C127.462 94.2158 127.565 94.449 127.773 94.6564C127.98 94.8378 128.239 94.9415 128.524 94.9415C128.835 94.9415 129.069 94.8378 129.276 94.6304C129.483 94.4231 129.587 94.1898 129.587 93.8788C129.613 93.5678 129.483 93.3086 129.276 93.1272ZM129.198 94.5527C129.017 94.7341 128.809 94.8119 128.524 94.8119C128.265 94.8119 128.032 94.7341 127.85 94.5527C127.669 94.3713 127.565 94.138 127.565 93.8788C127.565 93.6196 127.643 93.3864 127.824 93.2049C128.006 93.0235 128.213 92.9457 128.498 92.9457C128.757 92.9457 128.991 93.0235 129.172 93.2049C129.354 93.3864 129.457 93.6196 129.457 93.8788C129.457 94.138 129.38 94.3713 129.198 94.5527ZM128.654 93.9306C128.757 93.9047 128.835 93.8529 128.913 93.8011C128.965 93.7492 128.991 93.6455 128.991 93.5678C128.991 93.4641 128.965 93.3863 128.887 93.3086C128.809 93.2308 128.68 93.2049 128.498 93.2049H128.11V94.5527H128.291V93.9825H128.421C128.498 93.9825 128.576 94.0602 128.654 94.2157L128.809 94.5527H129.043L128.861 94.1898C128.783 94.0343 128.706 93.9566 128.654 93.9306ZM128.524 93.8011H128.317V93.3604H128.498C128.628 93.3604 128.706 93.3864 128.757 93.4123C128.809 93.4382 128.809 93.49 128.809 93.5937C128.783 93.7492 128.706 93.8011 128.524 93.8011ZM94.7522 83.2521H94.9336V81.9044H95.3742V81.7229H94.3115V81.9044H94.7522V83.2521ZM95.763 82.2413V81.9303C95.763 82.008 95.7889 82.0599 95.8148 82.0858L96.3332 83.2521H96.411L96.9293 82.0858C96.9552 82.0599 96.9553 82.008 96.9812 81.9303V83.2521H97.1626V81.7229H96.9552L96.4887 82.7856C96.4887 82.8115 96.4369 82.8893 96.411 82.993H96.385C96.385 82.9411 96.3591 82.8893 96.3073 82.8115L95.8408 81.7489H95.6075V83.2781H95.7889L95.763 82.2413Z" fill="#231F1F"/>
</g>
<defs>
<filter id="filter0_ddi_66_41" x="0" y="0" width="161" height="161" filterUnits="userSpaceOnUse" color-interpolation-filters="sRGB">
<feFlood flood-opacity="0" result="BackgroundImageFix"/>
<feColorMatrix in="SourceAlpha" type="matrix" values="0 0 0 0 0 0 0 0 0 0 0 0 0 0 0 0 0 0 127 0" result="hardAlpha"/>
<feOffset dy="7"/>
<feGaussianBlur stdDeviation="6.5"/>
<feComposite in2="hardAlpha" operator="out"/>
<feColorMatrix type="matrix" values="0 0 0 0 0 0 0 0 0 0 0 0 0 0 0 0 0 0 0.3 0"/>
<feBlend mode="normal" in2="BackgroundImageFix" result="effect1_dropShadow_66_41"/>
<feColorMatrix in="SourceAlpha" type="matrix" values="0 0 0 0 0 0 0 0 0 0 0 0 0 0 0 0 0 0 127 0" result="hardAlpha"/>
<feOffset dy="4"/>
<feGaussianBlur stdDeviation="2"/>
<feComposite in2="hardAlpha" operator="out"/>
<feColorMatrix type="matrix" values="0 0 0 0 0 0 0 0 0 0 0 0 0 0 0 0 0 0 0.25 0"/>
<feBlend mode="normal" in2="effect1_dropShadow_66_41" result="effect2_dropShadow_66_41"/>
<feBlend mode="normal" in="SourceGraphic" in2="effect2_dropShadow_66_41" result="shape"/>
<feColorMatrix in="SourceAlpha" type="matrix" values="0 0 0 0 0 0 0 0 0 0 0 0 0 0 0 0 0 0 127 0" result="hardAlpha"/>
<feOffset dy="-3"/>
<feComposite in2="hardAlpha" operator="arithmetic" k2="-1" k3="1"/>
<feColorMatrix type="matrix" values="0 0 0 0 0 0 0 0 0 0 0 0 0 0 0 0 0 0 0.2 0"/>
<feBlend mode="normal" in2="shape" result="effect3_innerShadow_66_41"/>
</filter>
<linearGradient id="paint0_linear_66_41" x1="76.9181" y1="78.0151" x2="80.6955" y2="75.7831" gradientUnits="userSpaceOnUse">
<stop stop-color="#909CA9"/>
<stop offset="1" stop-color="#EDEDEE"/>
</linearGradient>
<linearGradient id="paint1_linear_66_41" x1="77.0024" y1="35.96" x2="80.0418" y2="35.96" gradientUnits="userSpaceOnUse">
<stop stop-color="#939FAB"/>
<stop offset="1" stop-color="#DCDEE1"/>
</linearGradient>
<radialGradient id="paint2_radial_66_41" cx="0" cy="0" r="1" gradientUnits="userSpaceOnUse" gradientTransform="translate(92.3257 49.8808) rotate(-171.457) scale(3.91863 7.8392)">
<stop stop-color="#EE352C"/>
<stop offset="1" stop-color="#A91D22"/>
</radialGradient>
<clipPath id="clip0_66_41">
<rect width="120" height="76.512" fill="white" transform="translate(22 31)"/>
</clipPath>
</defs>
</svg>
