<svg width="161" height="161" viewBox="0 0 161 161" fill="none" xmlns="http://www.w3.org/2000/svg">
<g filter="url(#filter0_ddi_66_60)">
<path d="M148 73.5C148 110.779 117.779 141 80.5 141C43.2208 141 13 110.779 13 73.5C13 36.2208 43.2208 6 80.5 6C117.779 6 148 36.2208 148 73.5Z" fill="white"/>
</g>
<path d="M117.188 45.2708C111.507 37.9141 103.772 32.4073 94.9605 29.447C86.1494 26.4867 76.6583 26.2058 67.6876 28.6399C58.7169 31.0741 50.6695 36.1138 44.5632 43.1218C38.4569 50.1298 34.5659 58.7912 33.3825 68.0106C32.199 77.2301 33.7762 86.5934 37.9146 94.9165C42.0529 103.239 48.5666 110.148 56.6317 114.769C64.6968 119.39 73.9511 121.516 83.2242 120.877C92.4973 120.238 101.373 116.863 108.728 111.18C129.258 95.3135 133.049 65.8086 117.188 45.2708Z" fill="#FF6C37"/>
<path d="M95.8441 56.9429L76.0288 76.9153L70.4292 71.1586C89.9317 51.6561 91.8878 53.4184 95.8441 56.9429Z" fill="#F9F9F9"/>
<path d="M76.0288 77.4619C75.8533 77.4576 75.6857 77.388 75.5589 77.2666L69.9196 71.6273C69.7926 71.4959 69.7217 71.3203 69.7217 71.1376C69.7217 70.9548 69.7926 70.7792 69.9196 70.6478C89.1475 51.42 91.7718 52.3202 96.314 56.4322C96.3901 56.493 96.4509 56.5708 96.4917 56.6592C96.5325 56.7477 96.5521 56.8444 96.549 56.9417C96.5784 57.1327 96.5049 57.328 96.3537 57.4513L76.5384 77.2681C76.3995 77.3955 76.2173 77.4638 76.0288 77.4619ZM71.4073 71.1574L76.0288 75.779L94.8264 56.9814C94.1773 56.168 93.2512 55.6225 92.2252 55.4491C91.1992 55.2757 90.1452 55.4866 89.2649 56.0415C85.8579 57.5688 80.3758 62.2286 71.4073 71.1574Z" fill="#FF6C37"/>
<path d="M81.708 82.4375L76.3037 76.9158L96.119 57.334C101.445 62.543 93.5343 71.2383 81.708 82.4375Z" fill="#F9F9F9"/>
<path d="M81.7076 83.1418C81.5343 83.128 81.3698 83.0596 81.2377 82.9465L75.7159 77.5422C75.6331 77.3413 75.6331 77.1159 75.7159 76.9151C75.6572 76.7503 75.6572 76.5703 75.7159 76.4055L95.5312 56.5902C95.669 56.4608 95.851 56.3887 96.04 56.3887C96.2291 56.3887 96.4111 56.4608 96.5489 56.5902C97.1906 57.1809 97.6976 57.9028 98.0354 58.7068C98.3732 59.5109 98.5339 60.3783 98.5065 61.25C98.5065 66.5368 92.4751 73.1938 82.2158 82.9068C82.0787 83.0425 81.8998 83.1256 81.7076 83.1418ZM77.3211 76.9151L81.7458 81.3384C89.5777 73.9369 97.0585 66.3003 97.0967 61.131C97.1393 60.0351 96.777 58.9619 96.079 58.1161L77.3211 76.9151Z" fill="#FF6C37"/>
<path d="M70.5849 71.2761L74.5015 75.1927C74.5265 75.2148 74.5465 75.2419 74.5602 75.2723C74.574 75.3027 74.581 75.3356 74.581 75.369C74.581 75.4023 74.574 75.4352 74.5602 75.4656C74.5465 75.496 74.5265 75.5231 74.5015 75.5452L66.2379 77.3075C66.0711 77.3435 65.8971 77.324 65.7424 77.2519C65.5877 77.1799 65.4608 77.0593 65.3809 76.9085C65.3011 76.7576 65.2728 76.5848 65.3002 76.4164C65.3277 76.248 65.4094 76.0931 65.533 75.9755L70.3499 71.1982C70.3499 71.1982 70.507 71.1982 70.5849 71.2761Z" fill="#F9F9F9"/>
<path d="M66.0429 78.0902C65.7819 78.0869 65.526 78.0167 65.2997 77.8864C65.0735 77.756 64.8844 77.5698 64.7506 77.3456C64.6 77.0616 64.5454 76.7364 64.5949 76.4188C64.6444 76.1012 64.7954 75.8081 65.0252 75.5833L69.8025 70.7665C69.9747 70.6125 70.1977 70.5273 70.4288 70.5273C70.6599 70.5273 70.8828 70.6125 71.0551 70.7665L74.9718 74.6831C75.2038 74.9034 75.2949 75.2368 75.2068 75.5452C75.1186 75.8535 74.8602 76.0988 74.5415 76.1722L66.2779 77.9345L66.0429 78.0902ZM70.4295 72.1381L66.0048 76.5629L73.3285 74.9959L70.4295 72.1381Z" fill="#FF6C37"/>
<path d="M106.379 45.9376C103.545 43.2031 99.0923 43.0886 96.12 45.6689C93.1476 48.2491 92.6395 52.6783 94.9539 55.8651C97.2684 59.0518 101.631 59.9447 105.009 57.921L99.6827 52.5946L106.379 45.9376Z" fill="#F9F9F9"/>
<path d="M101.093 59.7213C99.4645 59.7004 97.8782 59.2008 96.5318 58.2848C95.1853 57.3687 94.1382 56.0766 93.521 54.5696C92.9041 53.0637 92.7423 51.4101 93.0555 49.8132C93.3687 48.2163 94.1432 46.7463 95.2832 45.585C96.8511 44.0459 98.9604 43.1836 101.157 43.1836C103.355 43.1836 105.464 44.0459 107.032 45.585C107.181 45.7113 107.267 45.8978 107.267 46.0946C107.266 46.1914 107.245 46.287 107.205 46.3749C107.164 46.4628 107.105 46.541 107.032 46.6041L100.688 52.5959L105.504 57.3349C105.582 57.4094 105.641 57.5019 105.675 57.6043C105.709 57.7067 105.718 57.8159 105.7 57.9223C105.688 58.025 105.654 58.1239 105.6 58.2119C105.546 58.3 105.473 58.3751 105.387 58.4319C104.093 59.2408 102.605 59.6871 101.08 59.7242L101.093 59.7213ZM101.093 44.5261C98.3026 44.5408 95.806 46.2194 94.759 48.785C93.7119 51.3505 94.2817 54.3038 96.2378 56.2746C97.2108 57.2532 98.4566 57.9152 99.8121 58.1738C101.168 58.4325 102.57 58.2757 103.835 57.7241L99.2131 53.1025C99.1396 53.0438 99.0803 52.9692 99.0396 52.8845C98.9988 52.7997 98.9776 52.7068 98.9776 52.6128C98.9776 52.5187 98.9988 52.4258 99.0396 52.341C99.0803 52.2563 99.1396 52.1817 99.2131 52.123L105.322 45.9741C104.108 45.0434 102.623 44.5359 101.093 44.5261Z" fill="#FF6C37"/>
<path d="M106.497 46.0552L99.8003 52.7122L105.127 58.0386C105.663 57.7309 106.162 57.3628 106.614 56.9416C108.01 55.466 108.779 53.5058 108.757 51.4746C108.735 49.4435 107.924 47.5003 106.497 46.0552Z" fill="#F9F9F9"/>
<path d="M105.008 58.6261C104.92 58.6308 104.832 58.6158 104.751 58.582C104.669 58.5481 104.597 58.4965 104.538 58.4308L99.2115 53.1043C99.1381 53.0456 99.0788 52.971 99.038 52.8862C98.9972 52.8015 98.9761 52.7086 98.9761 52.6145C98.9761 52.5205 98.9972 52.4276 99.038 52.3428C99.0788 52.258 99.1381 52.1835 99.2115 52.1248L105.869 45.5853C105.933 45.4883 106.02 45.4088 106.123 45.3538C106.225 45.2988 106.34 45.27 106.456 45.27C106.572 45.27 106.687 45.2988 106.789 45.3538C106.892 45.4088 106.979 45.4883 107.043 45.5853C107.825 46.351 108.446 47.2649 108.87 48.2736C109.293 49.2823 109.512 50.3654 109.512 51.4595C109.512 52.5536 109.293 53.6367 108.87 54.6454C108.446 55.6541 107.825 56.568 107.043 57.3337C106.582 57.8227 106.055 58.2444 105.476 58.5864C105.331 58.6598 105.164 58.674 105.008 58.6261ZM100.701 52.5962L105.125 57.0209C105.43 56.8076 105.718 56.572 105.987 56.316C107.288 55.0188 108.021 53.2583 108.024 51.4213C108.027 49.7773 107.428 48.1892 106.34 46.9569L100.701 52.5962Z" fill="#FF6C37"/>
<path d="M96.6666 57.7656C96.1362 57.2675 95.4359 56.9902 94.7083 56.9902C93.9807 56.9902 93.2804 57.2675 92.75 57.7656L75.0112 75.4647L77.9483 78.4414L96.7063 61.9936C96.9923 61.7194 97.2192 61.3896 97.373 61.0244C97.5268 60.6593 97.6042 60.2665 97.6005 59.8703C97.5968 59.4741 97.512 59.0828 97.3514 58.7206C97.1908 58.3584 96.9578 58.0343 96.6666 57.7656Z" fill="#F9F9F9"/>
<path d="M77.7911 79.1473C77.6156 79.143 77.448 79.0733 77.3212 78.952L74.3444 75.9752C74.2174 75.8438 74.1465 75.6682 74.1465 75.4854C74.1465 75.3027 74.2174 75.1271 74.3444 74.9957L92.0846 57.3333C92.5956 56.823 93.2481 56.4779 93.9576 56.3429C94.667 56.2078 95.4007 56.2891 96.0634 56.576C96.7261 56.863 97.2873 57.3424 97.6743 57.9522C98.0612 58.562 98.256 59.274 98.2335 59.9958C98.2131 60.4858 98.0952 60.9667 97.8867 61.4105C97.6782 61.8544 97.3831 62.2521 97.019 62.5805L78.2611 79.0283C78.1246 79.1249 77.957 79.1683 77.7911 79.1473ZM75.716 75.4641L77.6736 77.4614L96.0791 61.4438C96.5343 61.0473 96.806 60.4804 96.8236 59.8769C96.8413 59.2733 96.6034 58.6829 96.1584 58.2717C95.7475 57.8625 95.1912 57.6328 94.6113 57.6328C94.0313 57.6328 93.4751 57.8625 93.0641 58.2717L75.716 75.4641Z" fill="#FF6C37"/>
<path d="M61.2657 95.6334C61.2156 95.7015 61.1885 95.7839 61.1885 95.8684C61.1885 95.953 61.2156 96.0353 61.2657 96.1034L62.0484 99.5104C62.0798 99.7109 62.05 99.9162 61.9631 100.1C61.8761 100.283 61.7359 100.436 61.5608 100.538C61.3864 100.64 61.184 100.685 60.9829 100.664C60.7818 100.644 60.5923 100.56 60.4418 100.425L55.0771 95.256L71.7996 78.4014H77.596L81.5127 82.318C75.403 87.6598 68.5908 92.1399 61.2657 95.6334Z" fill="#F9F9F9"/>
<path d="M60.913 101.39C60.4695 101.381 60.0319 101.199 59.7382 100.881L54.6085 95.751C54.535 95.6923 54.4757 95.6178 54.435 95.533C54.3942 95.4482 54.373 95.3553 54.373 95.2613C54.373 95.1672 54.3942 95.0743 54.435 94.9895C54.4757 94.9048 54.535 94.8302 54.6085 94.7715L71.447 77.8933C71.5413 77.7931 71.6645 77.7249 71.7995 77.698H77.6341C77.7861 77.6443 77.952 77.6443 78.104 77.698L82.0206 81.6147C82.0951 81.6833 82.1518 81.7691 82.1858 81.8645C82.2198 81.9599 82.2302 82.0622 82.216 82.1625C82.2187 82.2598 82.1989 82.3564 82.1582 82.4448C82.1174 82.5332 82.0568 82.611 81.981 82.672L81.6682 82.9467C75.5339 88.0606 68.7851 92.3887 61.5783 95.8303L62.3229 99.0024C62.3804 99.2471 62.3826 99.5016 62.3293 99.7472C62.276 99.9929 62.1685 100.224 62.0147 100.422C61.8609 100.621 61.6647 100.783 61.4403 100.897C61.2159 101.01 60.969 101.072 60.7177 101.077L60.913 101.39ZM56.1358 95.2414L60.7559 99.9012C60.799 99.9396 60.8546 99.9608 60.9123 99.9608C60.97 99.9608 61.0257 99.9396 61.0687 99.9012C61.0975 99.8612 61.113 99.8131 61.113 99.7639C61.113 99.7146 61.0975 99.6665 61.0687 99.6266L60.286 96.2195C60.2243 95.975 60.2491 95.7167 60.3561 95.4883C60.4632 95.26 60.646 95.0758 60.8734 94.9668C67.8864 91.5711 74.4613 87.3366 80.4537 82.3563L77.2419 79.1446H71.9948L56.1358 95.2414Z" fill="#FF6C37"/>
<path d="M51.0443 99.276L54.9609 95.3594L60.9923 101.391L51.3982 100.725C51.2335 100.713 51.0771 100.648 50.9512 100.541C50.8254 100.434 50.7366 100.29 50.6975 100.129C50.6585 99.9686 50.6711 99.7998 50.7336 99.6469C50.7962 99.4939 50.9054 99.3647 51.0458 99.2775L51.0443 99.276Z" fill="#F9F9F9"/>
<path d="M61.1083 101.978L51.5524 101.313C50.9855 101.26 50.498 100.872 50.2982 100.354C50.0985 99.8354 50.2204 99.2201 50.6125 98.806L54.5292 94.8893C54.6606 94.7624 54.8362 94.6914 55.0189 94.6914C55.2017 94.6914 55.3773 94.7624 55.5087 94.8893L61.5004 100.881C61.5834 100.995 61.6281 101.132 61.6281 101.272C61.6281 101.413 61.5834 101.55 61.5004 101.664C61.4098 101.81 61.2712 101.922 61.1083 101.978ZM51.5524 99.7855L59.3842 100.295L55.0769 96.261L51.5524 99.7855Z" fill="#FF6C37"/>
<path d="M78.1435 78.8746L70.2324 80.0891L74.8143 75.5469L78.1435 78.8746Z" fill="#F9F9F9"/>
<path d="M70.2325 80.8304C70.101 80.8338 69.9714 80.7985 69.8599 80.7288C69.7484 80.659 69.6599 80.558 69.6054 80.4383C69.522 80.3248 69.4771 80.1877 69.4771 80.0469C69.4771 79.9061 69.522 79.769 69.6054 79.6555L74.1477 75.0736C74.2855 74.9442 74.4674 74.8721 74.6565 74.8721C74.8456 74.8721 75.0276 74.9442 75.1654 75.0736L78.4961 78.4014C78.5626 78.5069 78.5979 78.6291 78.5979 78.7538C78.5979 78.8786 78.5626 79.0008 78.4961 79.1063C78.4634 79.2349 78.3944 79.3514 78.2972 79.4417C78.2001 79.5321 78.0789 79.5926 77.9483 79.6159L70.1165 80.8304H70.2325ZM74.8144 76.5613L72.2694 79.1063L76.656 78.441L74.8144 76.5613Z" fill="#FF6C37"/>
<path d="M78.1435 78.8712L72.6217 79.5761C72.4739 79.6097 72.3193 79.5947 72.1807 79.5334C72.0421 79.4722 71.9269 79.3679 71.8523 79.236C71.7776 79.1042 71.7474 78.9518 71.7662 78.8014C71.7849 78.651 71.8516 78.5107 71.9564 78.4013L74.8157 75.542L78.1435 78.8712Z" fill="#F9F9F9"/>
<path d="M72.4645 80.3225C72.2086 80.3201 71.9578 80.2499 71.7378 80.1191C71.5178 79.9884 71.3363 79.8016 71.2118 79.578C71.0623 79.3099 71.0043 79.0004 71.0467 78.6964C71.0891 78.3923 71.2296 78.1105 71.4468 77.8936L74.3061 75.0343C74.4439 74.9048 74.6259 74.8327 74.815 74.8327C75.004 74.8327 75.186 74.9048 75.3238 75.0343L78.653 78.3635C78.752 78.4573 78.8217 78.5778 78.8536 78.7104C78.8855 78.843 78.8782 78.982 78.8326 79.1106C78.7871 79.2392 78.7052 79.3517 78.597 79.4347C78.4887 79.5177 78.3587 79.5674 78.2227 79.578L72.7406 80.2829L72.4645 80.3225ZM72.4645 78.8731L76.6161 78.3635L74.776 76.5234L72.4263 78.8731H72.4645ZM106.535 50.5593C106.461 50.4357 106.345 50.3435 106.208 50.3002C106.07 50.2569 105.922 50.2654 105.791 50.3243C105.726 50.3571 105.668 50.4027 105.621 50.4582C105.574 50.5137 105.539 50.578 105.517 50.6474C105.474 50.7874 105.488 50.939 105.556 51.0689C105.83 51.646 105.754 52.3289 105.36 52.8311C105.311 52.8795 105.273 52.9375 105.248 53.0015C105.223 53.0654 105.211 53.1339 105.213 53.2027C105.215 53.3404 105.267 53.4727 105.36 53.5742C105.461 53.6139 105.573 53.6139 105.673 53.5742C105.764 53.5971 105.86 53.5946 105.95 53.5669C106.04 53.5392 106.12 53.4874 106.183 53.4171C106.505 53.0223 106.709 52.5443 106.772 52.0383C106.834 51.5324 106.752 51.0206 106.535 50.5593Z" fill="#FF6C37"/>
<defs>
<filter id="filter0_ddi_66_60" x="0" y="0" width="161" height="161" filterUnits="userSpaceOnUse" color-interpolation-filters="sRGB">
<feFlood flood-opacity="0" result="BackgroundImageFix"/>
<feColorMatrix in="SourceAlpha" type="matrix" values="0 0 0 0 0 0 0 0 0 0 0 0 0 0 0 0 0 0 127 0" result="hardAlpha"/>
<feOffset dy="7"/>
<feGaussianBlur stdDeviation="6.5"/>
<feComposite in2="hardAlpha" operator="out"/>
<feColorMatrix type="matrix" values="0 0 0 0 0 0 0 0 0 0 0 0 0 0 0 0 0 0 0.3 0"/>
<feBlend mode="normal" in2="BackgroundImageFix" result="effect1_dropShadow_66_60"/>
<feColorMatrix in="SourceAlpha" type="matrix" values="0 0 0 0 0 0 0 0 0 0 0 0 0 0 0 0 0 0 127 0" result="hardAlpha"/>
<feOffset dy="4"/>
<feGaussianBlur stdDeviation="2"/>
<feComposite in2="hardAlpha" operator="out"/>
<feColorMatrix type="matrix" values="0 0 0 0 0 0 0 0 0 0 0 0 0 0 0 0 0 0 0.25 0"/>
<feBlend mode="normal" in2="effect1_dropShadow_66_60" result="effect2_dropShadow_66_60"/>
<feBlend mode="normal" in="SourceGraphic" in2="effect2_dropShadow_66_60" result="shape"/>
<feColorMatrix in="SourceAlpha" type="matrix" values="0 0 0 0 0 0 0 0 0 0 0 0 0 0 0 0 0 0 127 0" result="hardAlpha"/>
<feOffset dy="-3"/>
<feComposite in2="hardAlpha" operator="arithmetic" k2="-1" k3="1"/>
<feColorMatrix type="matrix" values="0 0 0 0 0 0 0 0 0 0 0 0 0 0 0 0 0 0 0.2 0"/>
<feBlend mode="normal" in2="shape" result="effect3_innerShadow_66_60"/>
</filter>
</defs>
</svg>
