<svg width="161" height="161" viewBox="0 0 161 161" fill="none" xmlns="http://www.w3.org/2000/svg">
<g filter="url(#filter0_ddi_199_151)">
<path d="M148 73.5C148 110.779 117.779 141 80.5 141C43.2208 141 13 110.779 13 73.5C13 36.2208 43.2208 6 80.5 6C117.779 6 148 36.2208 148 73.5Z" fill="white"/>
</g>
<path d="M125 74.2852C125 68.3231 117.534 62.6729 106.086 59.169C108.728 47.5017 107.554 38.2192 102.381 35.2473C101.188 34.5502 99.7941 34.22 98.2715 34.22V38.3109C99.1154 38.3109 99.7941 38.476 100.363 38.7879C102.858 40.2188 103.94 45.6672 103.096 52.675C102.894 54.3994 102.564 56.2155 102.161 58.0684C98.565 57.1878 94.6392 56.509 90.5116 56.0688C88.0351 52.675 85.4668 49.593 82.8802 46.8963C88.8606 41.3378 94.4741 38.2926 98.2899 38.2926V34.2017C93.245 34.2017 86.6409 37.7973 79.9633 44.0345C73.2858 37.8339 66.6816 34.275 61.6368 34.275V38.3659C65.4342 38.3659 71.066 41.3929 77.0465 46.9147C74.4782 49.6114 71.9099 52.675 69.47 56.0688C65.3241 56.509 61.3983 57.1878 57.8027 58.0867C57.3808 56.2522 57.0689 54.4728 56.8488 52.7667C55.9865 45.7589 57.0506 40.3105 59.5271 38.8613C60.0775 38.5311 60.7929 38.3843 61.6368 38.3843V34.2934C60.0958 34.2934 58.7016 34.6236 57.4908 35.3207C52.3359 38.2926 51.1802 47.5567 53.8402 59.1874C42.4297 62.7096 35 68.3415 35 74.2852C35 80.2473 42.4664 85.8975 53.9136 89.4014C51.2719 101.069 52.446 110.351 57.6192 113.323C58.8117 114.02 60.2059 114.35 61.7468 114.35C66.7917 114.35 73.3958 110.755 80.0734 104.518C86.7509 110.718 93.3551 114.277 98.3999 114.277C99.9409 114.277 101.335 113.947 102.546 113.25C107.701 110.278 108.857 101.014 106.196 89.3831C117.57 85.8792 125 80.229 125 74.2852ZM101.115 62.0492C100.436 64.4157 99.5923 66.8556 98.6384 69.2954C97.8863 67.8278 97.0974 66.3602 96.2352 64.8927C95.3914 63.4251 94.4925 61.9942 93.5936 60.5999C96.1985 60.9852 98.7118 61.4622 101.115 62.0492ZM92.713 81.5865C91.2821 84.0631 89.8145 86.4112 88.2919 88.5942C85.5585 88.8327 82.7884 88.9611 80 88.9611C77.2299 88.9611 74.4598 88.8327 71.7448 88.6126C70.2222 86.4295 68.7362 84.0997 67.3053 81.6415C65.9111 79.2384 64.6453 76.7985 63.4896 74.3403C64.627 71.882 65.9111 69.4238 67.287 67.0207C68.7179 64.5441 70.1855 62.196 71.7081 60.0129C74.4415 59.7744 77.2116 59.646 80 59.646C82.7701 59.646 85.5402 59.7744 88.2552 59.9946C89.7778 62.1776 91.2638 64.5074 92.6947 66.9656C94.0889 69.3688 95.3547 71.8087 96.5104 74.2669C95.3547 76.7251 94.0889 79.1833 92.713 81.5865ZM98.6384 79.2017C99.629 81.6599 100.473 84.1181 101.17 86.5029C98.7668 87.09 96.2352 87.5853 93.6119 87.9705C94.5108 86.558 95.4097 85.1087 96.2536 83.6228C97.0974 82.1552 97.8863 80.6692 98.6384 79.2017ZM80.0367 98.7757C78.3306 97.0145 76.6245 95.0516 74.9368 92.9053C76.5879 92.9787 78.2756 93.0337 79.9817 93.0337C81.7061 93.0337 83.4122 92.997 85.0815 92.9053C83.4305 95.0516 81.7244 97.0145 80.0367 98.7757ZM66.3881 87.9705C63.7831 87.5853 61.2699 87.1083 58.8667 86.5213C59.5455 84.1548 60.3893 81.7149 61.3433 79.275C62.0954 80.7426 62.8842 82.2102 63.7464 83.6778C64.6086 85.1454 65.4892 86.5763 66.3881 87.9705ZM79.945 49.7948C81.651 51.5559 83.3571 53.5188 85.0448 55.6652C83.3938 55.5918 81.7061 55.5368 80 55.5368C78.2756 55.5368 76.5695 55.5734 74.9001 55.6652C76.5512 53.5188 78.2572 51.5559 79.945 49.7948ZM66.3698 60.5999C65.4709 62.0125 64.572 63.4618 63.7281 64.9477C62.8842 66.4153 62.0954 67.8829 61.3433 69.3505C60.3526 66.8922 59.5088 64.434 58.8117 62.0492C61.2148 61.4805 63.7464 60.9852 66.3698 60.5999ZM49.7676 83.5677C43.2735 80.7977 39.0726 77.1654 39.0726 74.2852C39.0726 71.4051 43.2735 67.7545 49.7676 65.0027C51.3453 64.324 53.0697 63.7186 54.8492 63.1499C55.8948 66.7455 57.2707 70.4878 58.9768 74.3219C57.289 78.1377 55.9315 81.8617 54.9042 85.4389C53.0881 84.8702 51.3636 84.2465 49.7676 83.5677ZM59.6372 109.783C57.1423 108.352 56.0599 102.903 56.9038 95.8955C57.1056 94.1711 57.4358 92.3549 57.8394 90.5021C61.435 91.3827 65.3608 92.0614 69.4884 92.5017C71.9649 95.8955 74.5332 98.9774 77.1199 101.674C71.1394 107.233 65.5259 110.278 61.7102 110.278C60.8846 110.26 60.1875 110.094 59.6372 109.783ZM103.151 95.8038C104.013 102.812 102.949 108.26 100.473 109.709C99.9225 110.039 99.2071 110.186 98.3632 110.186C94.5658 110.186 88.934 107.159 82.9535 101.637C85.5218 98.9408 88.0901 95.8772 90.53 92.4834C94.6759 92.0431 98.6017 91.3643 102.197 90.4654C102.619 92.3183 102.949 94.0977 103.151 95.8038ZM110.214 83.5677C108.636 84.2465 106.912 84.8519 105.132 85.4206C104.087 81.825 102.711 78.0826 101.005 74.2485C102.693 70.4328 104.05 66.7088 105.077 63.1315C106.894 63.7002 108.618 64.324 110.232 65.0027C116.726 67.7728 120.927 71.4051 120.927 74.2852C120.909 77.1654 116.708 80.816 110.214 83.5677Z" fill="#61DAFB"/>
<path d="M79.9818 82.6691C84.6119 82.6691 88.3654 78.9156 88.3654 74.2855C88.3654 69.6553 84.6119 65.9019 79.9818 65.9019C75.3516 65.9019 71.5981 69.6553 71.5981 74.2855C71.5981 78.9156 75.3516 82.6691 79.9818 82.6691Z" fill="#61DAFB"/>
<defs>
<filter id="filter0_ddi_199_151" x="0" y="0" width="161" height="161" filterUnits="userSpaceOnUse" color-interpolation-filters="sRGB">
<feFlood flood-opacity="0" result="BackgroundImageFix"/>
<feColorMatrix in="SourceAlpha" type="matrix" values="0 0 0 0 0 0 0 0 0 0 0 0 0 0 0 0 0 0 127 0" result="hardAlpha"/>
<feOffset dy="7"/>
<feGaussianBlur stdDeviation="6.5"/>
<feComposite in2="hardAlpha" operator="out"/>
<feColorMatrix type="matrix" values="0 0 0 0 0 0 0 0 0 0 0 0 0 0 0 0 0 0 0.3 0"/>
<feBlend mode="normal" in2="BackgroundImageFix" result="effect1_dropShadow_199_151"/>
<feColorMatrix in="SourceAlpha" type="matrix" values="0 0 0 0 0 0 0 0 0 0 0 0 0 0 0 0 0 0 127 0" result="hardAlpha"/>
<feOffset dy="4"/>
<feGaussianBlur stdDeviation="2"/>
<feComposite in2="hardAlpha" operator="out"/>
<feColorMatrix type="matrix" values="0 0 0 0 0 0 0 0 0 0 0 0 0 0 0 0 0 0 0.25 0"/>
<feBlend mode="normal" in2="effect1_dropShadow_199_151" result="effect2_dropShadow_199_151"/>
<feBlend mode="normal" in="SourceGraphic" in2="effect2_dropShadow_199_151" result="shape"/>
<feColorMatrix in="SourceAlpha" type="matrix" values="0 0 0 0 0 0 0 0 0 0 0 0 0 0 0 0 0 0 127 0" result="hardAlpha"/>
<feOffset dy="-3"/>
<feComposite in2="hardAlpha" operator="arithmetic" k2="-1" k3="1"/>
<feColorMatrix type="matrix" values="0 0 0 0 0 0 0 0 0 0 0 0 0 0 0 0 0 0 0.2 0"/>
<feBlend mode="normal" in2="shape" result="effect3_innerShadow_199_151"/>
</filter>
</defs>
</svg>
